<svg width="2883" height="1897" xmlns="http://www.w3.org/2000/svg" xmlns:xlink="http://www.w3.org/1999/xlink" overflow="hidden"><defs><clipPath id="clip0"><rect x="1737" y="73" width="2883" height="1897"/></clipPath><clipPath id="clip1"><rect x="1741" y="77" width="2874" height="1889"/></clipPath><clipPath id="clip2"><rect x="1741" y="77" width="2874" height="1889"/></clipPath><clipPath id="clip3"><rect x="1741" y="77" width="2874" height="1889"/></clipPath><clipPath id="clip4"><rect x="1741" y="77" width="2874" height="1889"/></clipPath><clipPath id="clip5"><rect x="1741" y="77" width="2874" height="1889"/></clipPath><clipPath id="clip6"><rect x="2113" y="275" width="1998" height="1426"/></clipPath><clipPath id="clip7"><rect x="1741" y="77" width="2874" height="1889"/></clipPath><clipPath id="clip8"><rect x="2113" y="275" width="1998" height="1426"/></clipPath><clipPath id="clip9"><rect x="1741" y="77" width="2874" height="1889"/></clipPath><clipPath id="clip10"><rect x="1741" y="77" width="2874" height="1889"/></clipPath><clipPath id="clip11"><rect x="1741" y="77" width="2874" height="1889"/></clipPath><clipPath id="clip12"><rect x="1741" y="77" width="2874" height="1889"/></clipPath><clipPath id="clip13"><rect x="1741" y="77" width="2874" height="1889"/></clipPath><clipPath id="clip14"><rect x="1741" y="77" width="2874" height="1889"/></clipPath><clipPath id="clip15"><rect x="1741" y="77" width="2874" height="1889"/></clipPath><clipPath id="clip16"><rect x="1741" y="77" width="2874" height="1889"/></clipPath><clipPath id="clip17"><rect x="1741" y="77" width="2874" height="1889"/></clipPath><clipPath id="clip18"><rect x="1741" y="77" width="2874" height="1889"/></clipPath><clipPath id="clip19"><rect x="1741" y="77" width="2874" height="1889"/></clipPath><clipPath id="clip20"><rect x="1741" y="77" width="2874" height="1889"/></clipPath><clipPath id="clip21"><rect x="1741" y="77" width="2874" height="1889"/></clipPath><clipPath id="clip22"><rect x="1741" y="77" width="2874" height="1889"/></clipPath><clipPath id="clip23"><rect x="1741" y="77" width="2874" height="1889"/></clipPath><clipPath id="clip24"><rect x="1741" y="77" width="2874" height="1889"/></clipPath><clipPath id="clip25"><rect x="1741" y="77" width="2874" height="1889"/></clipPath><clipPath id="clip26"><rect x="1741" y="77" width="2874" height="1889"/></clipPath></defs><g clip-path="url(#clip0)" transform="translate(-1737 -73)"><rect x="1742" y="78" width="2873" height="1888" fill="#FFFFFF" fill-opacity="1"/><g clip-path="url(#clip1)"><path d="M2113.5 1590.55 4107.5 1590.55M2113.5 1528.55 4107.5 1528.55M2113.5 1483.55 4107.5 1483.55M2113.5 1449.55 4107.5 1449.55M2113.5 1421.55 4107.5 1421.55M2113.5 1397.55 4107.5 1397.55M2113.5 1376.55 4107.5 1376.55M2113.5 1358.54 4107.5 1358.54M2113.5 1235.54 4107.5 1235.54M2113.5 1172.54 4107.5 1172.54M2113.5 1128.54 4107.5 1128.54M2113.5 1093.54 4107.5 1093.54M2113.5 1065.54 4107.5 1065.54M2113.5 1041.53 4107.5 1041.53M2113.5 1020.53 4107.5 1020.53M2113.5 1002.53 4107.5 1002.53M2113.5 879.529 4107.5 879.529M2113.5 816.527 4107.5 816.527M2113.5 772.526 4107.5 772.526M2113.5 737.524 4107.5 737.524M2113.5 709.523 4107.5 709.523M2113.5 685.523 4107.5 685.523M2113.5 665.522 4107.5 665.522M2113.5 647.521 4107.5 647.521M2113.5 523.517 4107.5 523.517M2113.5 461.515 4107.5 461.515M2113.5 416.514 4107.5 416.514M2113.5 382.513 4107.5 382.513M2113.5 354.512 4107.5 354.512M2113.5 330.511 4107.5 330.511M2113.5 309.51 4107.5 309.51M2113.5 291.51 4107.5 291.51" stroke="#F2F2F2" stroke-width="3.4375" stroke-linecap="butt" stroke-linejoin="round" stroke-miterlimit="10" stroke-opacity="1" fill="none" fill-rule="nonzero"/></g><g clip-path="url(#clip2)"><path d="M2113.5 1342.54 4107.5 1342.54M2113.5 986.533 4107.5 986.533M2113.5 630.521 4107.5 630.521M2113.5 275.5 4107.5 275.5" stroke="#D9D9D9" stroke-width="3.4375" stroke-linecap="butt" stroke-linejoin="round" stroke-miterlimit="10" stroke-opacity="1" fill="none" fill-rule="nonzero"/></g><g clip-path="url(#clip3)"><path d="M2413.58 275.5 2413.58 1697.5M2588.58 275.5 2588.58 1697.5M2713.59 275.5 2713.59 1697.5M2810.59 275.5 2810.59 1697.5M2889.59 275.5 2889.59 1697.5M2955.6 275.5 2955.6 1697.5M3013.6 275.5 3013.6 1697.5M3064.6 275.5 3064.6 1697.5M3410.61 275.5 3410.61 1697.5M3586.62 275.5 3586.62 1697.5M3710.62 275.5 3710.62 1697.5M3807.62 275.5 3807.62 1697.5M3886.63 275.5 3886.63 1697.5M3953.63 275.5 3953.63 1697.5M4011.63 275.5 4011.63 1697.5M4062.63 275.5 4062.63 1697.5" stroke="#F2F2F2" stroke-width="3.4375" stroke-linecap="butt" stroke-linejoin="round" stroke-miterlimit="10" stroke-opacity="1" fill="none" fill-rule="nonzero"/></g><g clip-path="url(#clip4)"><path d="M2113.5 275.5 2113.5 1697.5M3110.6 275.5 3110.6 1697.5M4107.5 275.5 4107.5 1697.5" stroke="#D9D9D9" stroke-width="3.4375" stroke-linecap="butt" stroke-linejoin="round" stroke-miterlimit="10" stroke-opacity="1" fill="none" fill-rule="nonzero"/></g><g clip-path="url(#clip5)"><path d="M2113.5 1697.5 4107.5 1697.5" stroke="#D9D9D9" stroke-width="3.4375" stroke-linecap="butt" stroke-linejoin="round" stroke-miterlimit="10" stroke-opacity="1" fill="none" fill-rule="evenodd"/></g><g clip-path="url(#clip6)"><path d="M2413 1484 2714.09 1276.04 2889.09 1148.04 3014.1 1052.03 3152.1 958.031 3286.11 865.028 3411 772" stroke="#4472C4" stroke-width="10.3125" stroke-linecap="round" stroke-linejoin="round" stroke-miterlimit="10" stroke-opacity="1" fill="none" fill-rule="nonzero"/></g><g clip-path="url(#clip7)"><path d="M2424.17 1483.42C2424.17 1489.49 2419.24 1494.42 2413.17 1494.42 2407.09 1494.42 2402.17 1489.49 2402.17 1483.42 2402.17 1477.34 2407.09 1472.42 2413.17 1472.42 2419.24 1472.42 2424.17 1477.34 2424.17 1483.42Z" stroke="#4472C4" stroke-width="3.4375" stroke-linecap="butt" stroke-linejoin="round" stroke-miterlimit="10" stroke-opacity="1" fill="#4472C4" fill-rule="nonzero" fill-opacity="1"/><path d="M2724.17 1276.42C2724.17 1282.49 2719.24 1287.42 2713.17 1287.42 2707.09 1287.42 2702.17 1282.49 2702.17 1276.42 2702.17 1270.34 2707.09 1265.42 2713.17 1265.42 2719.24 1265.42 2724.17 1270.34 2724.17 1276.42Z" stroke="#4472C4" stroke-width="3.4375" stroke-linecap="butt" stroke-linejoin="round" stroke-miterlimit="10" stroke-opacity="1" fill="#4472C4" fill-rule="nonzero" fill-opacity="1"/><path d="M2900.17 1147.42C2900.17 1153.49 2895.24 1158.42 2889.17 1158.42 2883.09 1158.42 2878.17 1153.49 2878.17 1147.42 2878.17 1141.34 2883.09 1136.42 2889.17 1136.42 2895.24 1136.42 2900.17 1141.34 2900.17 1147.42Z" stroke="#4472C4" stroke-width="3.4375" stroke-linecap="butt" stroke-linejoin="round" stroke-miterlimit="10" stroke-opacity="1" fill="#4472C4" fill-rule="nonzero" fill-opacity="1"/><path d="M3024.17 1052.42C3024.17 1058.49 3019.24 1063.42 3013.17 1063.42 3007.09 1063.42 3002.17 1058.49 3002.17 1052.42 3002.17 1046.34 3007.09 1041.42 3013.17 1041.42 3019.24 1041.42 3024.17 1046.34 3024.17 1052.42Z" stroke="#4472C4" stroke-width="3.4375" stroke-linecap="butt" stroke-linejoin="round" stroke-miterlimit="10" stroke-opacity="1" fill="#4472C4" fill-rule="nonzero" fill-opacity="1"/><path d="M3162.17 958.417C3162.17 964.491 3157.24 969.416 3151.17 969.416 3145.09 969.416 3140.17 964.491 3140.17 958.417 3140.17 952.342 3145.09 947.417 3151.17 947.417 3157.24 947.417 3162.17 952.342 3162.17 958.417Z" stroke="#4472C4" stroke-width="3.4375" stroke-linecap="butt" stroke-linejoin="round" stroke-miterlimit="10" stroke-opacity="1" fill="#4472C4" fill-rule="nonzero" fill-opacity="1"/><path d="M3297.17 864.417C3297.17 870.492 3292.24 875.416 3286.17 875.416 3280.09 875.416 3275.17 870.492 3275.17 864.417 3275.17 858.342 3280.09 853.417 3286.17 853.417 3292.24 853.417 3297.17 858.342 3297.17 864.417Z" stroke="#4472C4" stroke-width="3.4375" stroke-linecap="butt" stroke-linejoin="round" stroke-miterlimit="10" stroke-opacity="1" fill="#4472C4" fill-rule="nonzero" fill-opacity="1"/><path d="M3421.17 772.417C3421.17 778.491 3416.24 783.416 3410.17 783.416 3404.09 783.416 3399.17 778.491 3399.17 772.417 3399.17 766.342 3404.09 761.417 3410.17 761.417 3416.24 761.417 3421.17 766.342 3421.17 772.417Z" stroke="#4472C4" stroke-width="3.4375" stroke-linecap="butt" stroke-linejoin="round" stroke-miterlimit="10" stroke-opacity="1" fill="#4472C4" fill-rule="nonzero" fill-opacity="1"/></g><g clip-path="url(#clip8)"><path d="M2413 1387 2714.09 1057.03 2889.09 866.028 3014.1 732.024 3152.1 590.019 3286.11 443.015 3411 308" stroke="#ED7D31" stroke-width="10.3125" stroke-linecap="round" stroke-linejoin="round" stroke-miterlimit="10" stroke-opacity="1" fill="none" fill-rule="nonzero"/></g><g clip-path="url(#clip9)"><path d="M2424.17 1386.42C2424.17 1392.49 2419.24 1397.42 2413.17 1397.42 2407.09 1397.42 2402.17 1392.49 2402.17 1386.42 2402.17 1380.34 2407.09 1375.42 2413.17 1375.42 2419.24 1375.42 2424.17 1380.34 2424.17 1386.42Z" stroke="#ED7D31" stroke-width="3.4375" stroke-linecap="butt" stroke-linejoin="round" stroke-miterlimit="10" stroke-opacity="1" fill="#ED7D31" fill-rule="nonzero" fill-opacity="1"/><path d="M2724.17 1057.42C2724.17 1063.49 2719.24 1068.42 2713.17 1068.42 2707.09 1068.42 2702.17 1063.49 2702.17 1057.42 2702.17 1051.34 2707.09 1046.42 2713.17 1046.42 2719.24 1046.42 2724.17 1051.34 2724.17 1057.42Z" stroke="#ED7D31" stroke-width="3.4375" stroke-linecap="butt" stroke-linejoin="round" stroke-miterlimit="10" stroke-opacity="1" fill="#ED7D31" fill-rule="nonzero" fill-opacity="1"/><path d="M2900.17 866.417C2900.17 872.492 2895.24 877.416 2889.17 877.416 2883.09 877.416 2878.17 872.492 2878.17 866.417 2878.17 860.342 2883.09 855.417 2889.17 855.417 2895.24 855.417 2900.17 860.342 2900.17 866.417Z" stroke="#ED7D31" stroke-width="3.4375" stroke-linecap="butt" stroke-linejoin="round" stroke-miterlimit="10" stroke-opacity="1" fill="#ED7D31" fill-rule="nonzero" fill-opacity="1"/><path d="M3024.17 731.417C3024.17 737.492 3019.24 742.416 3013.17 742.416 3007.09 742.416 3002.17 737.492 3002.17 731.417 3002.17 725.342 3007.09 720.417 3013.17 720.417 3019.24 720.417 3024.17 725.342 3024.17 731.417Z" stroke="#ED7D31" stroke-width="3.4375" stroke-linecap="butt" stroke-linejoin="round" stroke-miterlimit="10" stroke-opacity="1" fill="#ED7D31" fill-rule="nonzero" fill-opacity="1"/><path d="M3162.17 590.417C3162.17 596.492 3157.24 601.416 3151.17 601.416 3145.09 601.416 3140.17 596.492 3140.17 590.417 3140.17 584.342 3145.09 579.417 3151.17 579.417 3157.24 579.417 3162.17 584.342 3162.17 590.417Z" stroke="#ED7D31" stroke-width="3.4375" stroke-linecap="butt" stroke-linejoin="round" stroke-miterlimit="10" stroke-opacity="1" fill="#ED7D31" fill-rule="nonzero" fill-opacity="1"/><path d="M3297.17 442.417C3297.17 448.491 3292.24 453.416 3286.17 453.416 3280.09 453.416 3275.17 448.491 3275.17 442.417 3275.17 436.342 3280.09 431.417 3286.17 431.417 3292.24 431.417 3297.17 436.342 3297.17 442.417Z" stroke="#ED7D31" stroke-width="3.4375" stroke-linecap="butt" stroke-linejoin="round" stroke-miterlimit="10" stroke-opacity="1" fill="#ED7D31" fill-rule="nonzero" fill-opacity="1"/><path d="M3421.17 308.417C3421.17 314.492 3416.24 319.416 3410.17 319.416 3404.09 319.416 3399.17 314.492 3399.17 308.417 3399.17 302.342 3404.09 297.417 3410.17 297.417 3416.24 297.417 3421.17 302.342 3421.17 308.417Z" stroke="#ED7D31" stroke-width="3.4375" stroke-linecap="butt" stroke-linejoin="round" stroke-miterlimit="10" stroke-opacity="1" fill="#ED7D31" fill-rule="nonzero" fill-opacity="1"/></g><g clip-path="url(#clip10)"><text fill="#595959" fill-opacity="1" font-family="Calibri,Calibri_MSFontService,sans-serif" font-style="normal" font-variant="normal" font-weight="400" font-stretch="normal" font-size="64" text-anchor="start" direction="ltr" writing-mode="lr-tb" unicode-bidi="normal" text-decoration="none" transform="matrix(1 0 0 1 2021.11 1716)">1</text></g><g clip-path="url(#clip11)"><text fill="#595959" fill-opacity="1" font-family="Calibri,Calibri_MSFontService,sans-serif" font-style="normal" font-variant="normal" font-weight="400" font-stretch="normal" font-size="64" text-anchor="start" direction="ltr" writing-mode="lr-tb" unicode-bidi="normal" text-decoration="none" transform="matrix(1 0 0 1 1988.59 1360)">10</text></g><g clip-path="url(#clip12)"><text fill="#595959" fill-opacity="1" font-family="Calibri,Calibri_MSFontService,sans-serif" font-style="normal" font-variant="normal" font-weight="400" font-stretch="normal" font-size="64" text-anchor="start" direction="ltr" writing-mode="lr-tb" unicode-bidi="normal" text-decoration="none" transform="matrix(1 0 0 1 1956.08 1005)">100</text></g><g clip-path="url(#clip13)"><text fill="#595959" fill-opacity="1" font-family="Calibri,Calibri_MSFontService,sans-serif" font-style="normal" font-variant="normal" font-weight="400" font-stretch="normal" font-size="64" text-anchor="start" direction="ltr" writing-mode="lr-tb" unicode-bidi="normal" text-decoration="none" transform="matrix(1 0 0 1 1923.56 649)">1000</text></g><g clip-path="url(#clip14)"><text fill="#595959" fill-opacity="1" font-family="Calibri,Calibri_MSFontService,sans-serif" font-style="normal" font-variant="normal" font-weight="400" font-stretch="normal" font-size="64" text-anchor="start" direction="ltr" writing-mode="lr-tb" unicode-bidi="normal" text-decoration="none" transform="matrix(1 0 0 1 1891.04 293)">10000</text></g><g clip-path="url(#clip15)"><text fill="#595959" fill-opacity="1" font-family="Calibri,Calibri_MSFontService,sans-serif" font-style="normal" font-variant="normal" font-weight="400" font-stretch="normal" font-size="64" text-anchor="start" direction="ltr" writing-mode="lr-tb" unicode-bidi="normal" text-decoration="none" transform="matrix(1 0 0 1 2096.9 1800)">1</text></g><g clip-path="url(#clip16)"><text fill="#595959" fill-opacity="1" font-family="Calibri,Calibri_MSFontService,sans-serif" font-style="normal" font-variant="normal" font-weight="400" font-stretch="normal" font-size="64" text-anchor="start" direction="ltr" writing-mode="lr-tb" unicode-bidi="normal" text-decoration="none" transform="matrix(1 0 0 1 3078.02 1800)">10</text></g><g clip-path="url(#clip17)"><text fill="#595959" fill-opacity="1" font-family="Calibri,Calibri_MSFontService,sans-serif" font-style="normal" font-variant="normal" font-weight="400" font-stretch="normal" font-size="64" text-anchor="start" direction="ltr" writing-mode="lr-tb" unicode-bidi="normal" text-decoration="none" transform="matrix(1 0 0 1 4059.14 1800)">100</text></g><g clip-path="url(#clip18)"><text fill="#595959" fill-opacity="1" font-family="Calibri,Calibri_MSFontService,sans-serif" font-style="normal" font-variant="normal" font-weight="400" font-stretch="normal" font-size="64" text-anchor="start" direction="ltr" writing-mode="lr-tb" unicode-bidi="normal" text-decoration="none" transform="matrix(6.12323e-17 -1 1 6.12323e-17 1859.96 1153)">Titre de l'axe</text></g><g clip-path="url(#clip19)"><text fill="#595959" fill-opacity="1" font-family="Calibri,Calibri_MSFontService,sans-serif" font-style="normal" font-variant="normal" font-weight="400" font-stretch="normal" font-size="64" text-anchor="start" direction="ltr" writing-mode="lr-tb" unicode-bidi="normal" text-decoration="none" transform="matrix(1 0 0 1 2944.22 1892)">Titre de l'axe</text></g><g clip-path="url(#clip20)"><text fill="#595959" fill-opacity="1" font-family="Calibri,Calibri_MSFontService,sans-serif" font-style="normal" font-variant="normal" font-weight="400" font-stretch="normal" font-size="77" text-anchor="start" direction="ltr" writing-mode="lr-tb" unicode-bidi="normal" text-decoration="none" transform="matrix(1 0 0 1 2890.04 185)">Titre du graphique</text></g><g clip-path="url(#clip21)"><path d="M4228 1037 4316 1037" stroke="#4472C4" stroke-width="10.3125" stroke-linecap="round" stroke-linejoin="round" stroke-miterlimit="10" stroke-opacity="1" fill="none" fill-rule="evenodd"/></g><g clip-path="url(#clip22)"><path d="M4283 1037C4283 1043.07 4278.08 1048 4272 1048 4265.92 1048 4261 1043.07 4261 1037 4261 1030.92 4265.92 1026 4272 1026 4278.08 1026 4283 1030.92 4283 1037Z" stroke="#4472C4" stroke-width="3.4375" stroke-linecap="butt" stroke-linejoin="round" stroke-miterlimit="10" stroke-opacity="1" fill="#4472C4" fill-rule="nonzero" fill-opacity="1"/></g><g clip-path="url(#clip23)"><text fill="#595959" fill-opacity="1" font-family="Calibri,Calibri_MSFontService,sans-serif" font-style="normal" font-variant="normal" font-weight="400" font-stretch="normal" font-size="64" text-anchor="start" direction="ltr" writing-mode="lr-tb" unicode-bidi="normal" text-decoration="none" transform="matrix(1 0 0 1 4325.7 1055)">mesure 0</text></g><g clip-path="url(#clip24)"><path d="M4228 1142 4316 1142" stroke="#ED7D31" stroke-width="10.3125" stroke-linecap="round" stroke-linejoin="round" stroke-miterlimit="10" stroke-opacity="1" fill="none" fill-rule="evenodd"/></g><g clip-path="url(#clip25)"><path d="M4283 1142C4283 1148.07 4278.08 1153 4272 1153 4265.92 1153 4261 1148.07 4261 1142 4261 1135.92 4265.92 1131 4272 1131 4278.08 1131 4283 1135.92 4283 1142Z" stroke="#ED7D31" stroke-width="3.4375" stroke-linecap="butt" stroke-linejoin="round" stroke-miterlimit="10" stroke-opacity="1" fill="#ED7D31" fill-rule="nonzero" fill-opacity="1"/></g><g clip-path="url(#clip26)"><text fill="#595959" fill-opacity="1" font-family="Calibri,Calibri_MSFontService,sans-serif" font-style="normal" font-variant="normal" font-weight="400" font-stretch="normal" font-size="64" text-anchor="start" direction="ltr" writing-mode="lr-tb" unicode-bidi="normal" text-decoration="none" transform="matrix(1 0 0 1 4325.7 1160)">mesure 1</text></g><rect x="1742.5" y="78.4999" width="2873" height="1888" stroke="#D9D9D9" stroke-width="3.4375" stroke-linecap="butt" stroke-linejoin="round" stroke-miterlimit="10" stroke-opacity="1" fill="none"/></g></svg>