<svg width="3594" height="1022" xmlns="http://www.w3.org/2000/svg" xmlns:xlink="http://www.w3.org/1999/xlink" overflow="hidden"><defs><clipPath id="clip0"><rect x="343" y="362" width="3594" height="1022"/></clipPath><clipPath id="clip1"><rect x="348" y="366" width="3584" height="1013"/></clipPath><clipPath id="clip2"><rect x="456" y="559" width="3403" height="740"/></clipPath><clipPath id="clip3"><rect x="348" y="366" width="3584" height="1013"/></clipPath><clipPath id="clip4"><rect x="348" y="366" width="3584" height="1013"/></clipPath><clipPath id="clip5"><rect x="348" y="366" width="3584" height="1013"/></clipPath><clipPath id="clip6"><rect x="348" y="366" width="3584" height="1013"/></clipPath><clipPath id="clip7"><rect x="348" y="366" width="3584" height="1013"/></clipPath><clipPath id="clip8"><rect x="348" y="366" width="3584" height="1013"/></clipPath><clipPath id="clip9"><rect x="348" y="366" width="3584" height="1013"/></clipPath><clipPath id="clip10"><rect x="348" y="366" width="3584" height="1013"/></clipPath><clipPath id="clip11"><rect x="348" y="366" width="3584" height="1013"/></clipPath><clipPath id="clip12"><rect x="348" y="366" width="3584" height="1013"/></clipPath><clipPath id="clip13"><rect x="348" y="366" width="3584" height="1013"/></clipPath><clipPath id="clip14"><rect x="348" y="366" width="3584" height="1013"/></clipPath><clipPath id="clip15"><rect x="348" y="366" width="3584" height="1013"/></clipPath><clipPath id="clip16"><rect x="348" y="366" width="3584" height="1013"/></clipPath><clipPath id="clip17"><rect x="348" y="366" width="3584" height="1013"/></clipPath><clipPath id="clip18"><rect x="348" y="366" width="3584" height="1013"/></clipPath><clipPath id="clip19"><rect x="348" y="366" width="3584" height="1013"/></clipPath><clipPath id="clip20"><rect x="348" y="366" width="3584" height="1013"/></clipPath><clipPath id="clip21"><rect x="348" y="366" width="3584" height="1013"/></clipPath><clipPath id="clip22"><rect x="348" y="366" width="3584" height="1013"/></clipPath><clipPath id="clip23"><rect x="348" y="366" width="3584" height="1013"/></clipPath><clipPath id="clip24"><rect x="348" y="366" width="3584" height="1013"/></clipPath><clipPath id="clip25"><rect x="348" y="366" width="3584" height="1013"/></clipPath><clipPath id="clip26"><rect x="348" y="366" width="3584" height="1013"/></clipPath><clipPath id="clip27"><rect x="348" y="366" width="3584" height="1013"/></clipPath><clipPath id="clip28"><rect x="348" y="366" width="3584" height="1013"/></clipPath><clipPath id="clip29"><rect x="348" y="366" width="3584" height="1013"/></clipPath><clipPath id="clip30"><rect x="348" y="366" width="3584" height="1013"/></clipPath><clipPath id="clip31"><rect x="348" y="366" width="3584" height="1013"/></clipPath><clipPath id="clip32"><rect x="348" y="366" width="3584" height="1013"/></clipPath><clipPath id="clip33"><rect x="348" y="366" width="3584" height="1013"/></clipPath><clipPath id="clip34"><rect x="348" y="366" width="3584" height="1013"/></clipPath><clipPath id="clip35"><rect x="348" y="366" width="3584" height="1013"/></clipPath><clipPath id="clip36"><rect x="348" y="366" width="3584" height="1013"/></clipPath><clipPath id="clip37"><rect x="348" y="366" width="3584" height="1013"/></clipPath><clipPath id="clip38"><rect x="348" y="366" width="3584" height="1013"/></clipPath><clipPath id="clip39"><rect x="348" y="366" width="3584" height="1013"/></clipPath><clipPath id="clip40"><rect x="348" y="366" width="3584" height="1013"/></clipPath><clipPath id="clip41"><rect x="348" y="366" width="3584" height="1013"/></clipPath><clipPath id="clip42"><rect x="348" y="366" width="3584" height="1013"/></clipPath><clipPath id="clip43"><rect x="348" y="366" width="3584" height="1013"/></clipPath><clipPath id="clip44"><rect x="348" y="366" width="3584" height="1013"/></clipPath><clipPath id="clip45"><rect x="348" y="366" width="3584" height="1013"/></clipPath><clipPath id="clip46"><rect x="348" y="366" width="3584" height="1013"/></clipPath><clipPath id="clip47"><rect x="348" y="366" width="3584" height="1013"/></clipPath><clipPath id="clip48"><rect x="348" y="366" width="3584" height="1013"/></clipPath><clipPath id="clip49"><rect x="348" y="366" width="3584" height="1013"/></clipPath><clipPath id="clip50"><rect x="348" y="366" width="3584" height="1013"/></clipPath><clipPath id="clip51"><rect x="348" y="366" width="3584" height="1013"/></clipPath><clipPath id="clip52"><rect x="348" y="366" width="3584" height="1013"/></clipPath><clipPath id="clip53"><rect x="348" y="366" width="3584" height="1013"/></clipPath><clipPath id="clip54"><rect x="348" y="366" width="3584" height="1013"/></clipPath><clipPath id="clip55"><rect x="348" y="366" width="3584" height="1013"/></clipPath><clipPath id="clip56"><rect x="348" y="366" width="3584" height="1013"/></clipPath><clipPath id="clip57"><rect x="348" y="366" width="3584" height="1013"/></clipPath><clipPath id="clip58"><rect x="348" y="366" width="3584" height="1013"/></clipPath><clipPath id="clip59"><rect x="348" y="366" width="3584" height="1013"/></clipPath><clipPath id="clip60"><rect x="348" y="366" width="3584" height="1013"/></clipPath><clipPath id="clip61"><rect x="348" y="366" width="3584" height="1013"/></clipPath></defs><g clip-path="url(#clip0)" transform="translate(-343 -362)"><rect x="348" y="367" width="3584" height="1013" fill="#FFFFFF" fill-opacity="1"/><g clip-path="url(#clip1)"><path d="M456.5 1173.54 3855.5 1173.54M456.5 1050.53 3855.5 1050.53M456.5 927.531 3855.5 927.531M456.5 805.527 3855.5 805.527M456.5 682.523 3855.5 682.523M456.5 559.5 3855.5 559.5" stroke="#D9D9D9" stroke-width="3.4375" stroke-linecap="butt" stroke-linejoin="round" stroke-miterlimit="10" stroke-opacity="1" fill="none" fill-rule="nonzero"/></g><g clip-path="url(#clip2)"><path d="M502.016 1290.04 512.017 1290.04 512.017 1296 502.016 1296ZM536.018 1284.04 546.018 1284.04 546.018 1296 536.018 1296ZM570.019 1278.04 580.019 1278.04 580.019 1296 570.019 1296ZM604.02 1272.04 614.02 1272.04 614.02 1296 604.02 1296ZM638.021 1265.04 648.021 1265.04 648.021 1296 638.021 1296ZM672.022 1259.04 682.022 1259.04 682.022 1296 672.022 1296ZM706.023 1253.04 716.023 1253.04 716.023 1296 706.023 1296ZM740.024 1247.04 750.025 1247.04 750.025 1296 740.024 1296ZM774.025 1241.04 784.026 1241.04 784.026 1296 774.025 1296ZM808.026 1235.04 818.027 1235.04 818.027 1296 808.026 1296ZM842.028 1229.04 852.028 1229.04 852.028 1296 842.028 1296ZM876.029 1222.04 886.029 1222.04 886.029 1296 876.029 1296ZM910.03 1216.04 920.03 1216.04 920.03 1296 910.03 1296ZM944.031 1210.04 954.031 1210.04 954.031 1296 944.031 1296ZM978.032 1204.04 988.032 1204.04 988.032 1296 978.032 1296ZM1012.03 1198.04 1022.03 1198.04 1022.03 1296 1012.03 1296ZM1046.03 1192.04 1056.03 1192.04 1056.03 1296 1046.03 1296ZM1080.04 1186.04 1090.04 1186.04 1090.04 1296 1080.04 1296ZM1114.04 1180.04 1124.04 1180.04 1124.04 1296 1114.04 1296ZM1148.04 1173.04 1158.04 1173.04 1158.04 1296 1148.04 1296ZM1182.04 1167.04 1192.04 1167.04 1192.04 1296 1182.04 1296ZM1216.04 1161.04 1226.04 1161.04 1226.04 1296 1216.04 1296ZM1250.04 1155.04 1260.04 1155.04 1260.04 1296 1250.04 1296ZM1284.04 1149.04 1294.04 1149.04 1294.04 1296 1284.04 1296ZM1318.04 1143.04 1328.04 1143.04 1328.04 1296 1318.04 1296ZM1352.04 1137.04 1362.04 1137.04 1362.04 1296 1352.04 1296ZM1386.05 1130.04 1396.05 1130.04 1396.05 1296 1386.05 1296ZM1420.05 1124.04 1430.05 1124.04 1430.05 1296 1420.05 1296ZM1454.05 1118.04 1464.05 1118.04 1464.05 1296 1454.05 1296ZM1488.05 1112.04 1498.05 1112.04 1498.05 1296 1488.05 1296ZM1522.05 1106.04 1532.05 1106.04 1532.05 1296 1522.05 1296ZM1556.05 1100.04 1566.05 1100.04 1566.05 1296 1556.05 1296ZM1590.05 1094.04 1600.05 1094.04 1600.05 1296 1590.05 1296ZM1624.05 1087.04 1634.05 1087.04 1634.05 1296 1624.05 1296ZM1658.05 1081.04 1668.05 1081.04 1668.05 1296 1658.05 1296ZM1692.06 1075.04 1702.06 1075.04 1702.06 1296 1692.06 1296ZM1726.06 1069.04 1736.06 1069.04 1736.06 1296 1726.06 1296ZM1760.06 1063.03 1770.06 1063.03 1770.06 1296 1760.06 1296ZM1794.06 1057.03 1804.06 1057.03 1804.06 1296 1794.06 1296ZM1828.06 1051.03 1838.06 1051.03 1838.06 1296 1828.06 1296ZM1862.06 1044.03 1872.06 1044.03 1872.06 1296 1862.06 1296ZM1896.06 1038.03 1906.06 1038.03 1906.06 1296 1896.06 1296ZM1930.06 1032.03 1940.06 1032.03 1940.06 1296 1930.06 1296ZM1964.06 1026.03 1974.06 1026.03 1974.06 1296 1964.06 1296ZM1998.07 1020.03 2008.07 1020.03 2008.07 1296 1998.07 1296ZM2032.07 1014.03 2042.07 1014.03 2042.07 1296 2032.07 1296ZM2066.07 1008.03 2076.07 1008.03 2076.07 1296 2066.07 1296ZM2100.07 1002.03 2110.07 1002.03 2110.07 1296 2100.07 1296ZM2134.07 995.033 2144.07 995.033 2144.07 1296 2134.07 1296ZM2168.07 989.032 2178.07 989.032 2178.07 1296 2168.07 1296ZM2202.07 983.032 2212.07 983.032 2212.07 1296 2202.07 1296ZM2236.07 977.032 2246.07 977.032 2246.07 1296 2236.07 1296ZM2270.07 971.032 2280.07 971.032 2280.07 1296 2270.07 1296ZM2304.08 965.032 2314.08 965.032 2314.08 1296 2304.08 1296ZM2338.08 959.031 2348.08 959.031 2348.08 1296 2338.08 1296ZM2372.08 952.031 2382.08 952.031 2382.08 1296 2372.08 1296ZM2406.08 946.031 2416.08 946.031 2416.08 1296 2406.08 1296ZM2440.08 940.031 2450.08 940.031 2450.08 1296 2440.08 1296ZM2474.08 934.031 2484.08 934.031 2484.08 1296 2474.08 1296ZM2508.08 928.03 2518.08 928.03 2518.08 1296 2508.08 1296ZM2542.08 922.03 2552.08 922.03 2552.08 1296 2542.08 1296ZM2576.08 916.03 2586.08 916.03 2586.08 1296 2576.08 1296ZM2610.09 909.03 2620.09 909.03 2620.09 1296 2610.09 1296ZM2644.09 903.03 2654.09 903.03 2654.09 1296 2644.09 1296ZM2678.09 897.029 2688.09 897.029 2688.09 1296 2678.09 1296ZM2712.09 891.029 2722.09 891.029 2722.09 1296 2712.09 1296ZM2746.09 885.029 2756.09 885.029 2756.09 1296 2746.09 1296ZM2780.09 879.029 2790.09 879.029 2790.09 1296 2780.09 1296ZM2814.09 873.029 2824.09 873.029 2824.09 1296 2814.09 1296ZM2848.09 866.028 2858.09 866.028 2858.09 1296 2848.09 1296ZM2882.09 860.028 2892.09 860.028 2892.09 1296 2882.09 1296ZM2916.1 854.028 2926.1 854.028 2926.1 1296 2916.1 1296ZM2950.1 848.028 2960.1 848.028 2960.1 1296 2950.1 1296ZM2984.1 842.028 2994.1 842.028 2994.1 1296 2984.1 1296ZM3018.1 836.027 3028.1 836.027 3028.1 1296 3018.1 1296ZM3052.1 830.027 3062.1 830.027 3062.1 1296 3052.1 1296ZM3086.1 823.027 3096.1 823.027 3096.1 1296 3086.1 1296ZM3120.1 817.027 3130.1 817.027 3130.1 1296 3120.1 1296ZM3154.1 811.027 3164.1 811.027 3164.1 1296 3154.1 1296ZM3188.1 805.026 3198.1 805.026 3198.1 1296 3188.1 1296ZM3222.11 799.026 3232.11 799.026 3232.11 1296 3222.11 1296ZM3256.11 793.026 3266.11 793.026 3266.11 1296 3256.11 1296ZM3290.11 787.026 3300.11 787.026 3300.11 1296 3290.11 1296ZM3324.11 781.026 3334.11 781.026 3334.11 1296 3324.11 1296ZM3358.11 774.025 3368.11 774.025 3368.11 1296 3358.11 1296ZM3392.11 768.025 3402.11 768.025 3402.11 1296 3392.11 1296ZM3426.11 762.025 3436.11 762.025 3436.11 1296 3426.11 1296ZM3460.11 756.025 3470.11 756.025 3470.11 1296 3460.11 1296ZM3494.11 750.025 3504.11 750.025 3504.11 1296 3494.11 1296ZM3528.12 744.024 3538.12 744.024 3538.12 1296 3528.12 1296ZM3562.12 738.024 3572.12 738.024 3572.12 1296 3562.12 1296ZM3596.12 731.024 3606.12 731.024 3606.12 1296 3596.12 1296ZM3630.12 725.024 3640.12 725.024 3640.12 1296 3630.12 1296ZM3664.12 719.024 3674.12 719.024 3674.12 1296 3664.12 1296ZM3698.12 713.023 3708.12 713.023 3708.12 1296 3698.12 1296ZM3732.12 707.023 3742.12 707.023 3742.12 1296 3732.12 1296ZM3766.12 701.023 3776.12 701.023 3776.12 1296 3766.12 1296ZM3800.12 695.023 3810.12 695.023 3810.12 1296 3800.12 1296ZM3834.13 688.023 3844.13 688.023 3844.13 1296 3834.13 1296Z" fill="#4472C4" fill-rule="nonzero" fill-opacity="1"/></g><g clip-path="url(#clip3)"><path d="M456.5 1296.5 3855.5 1296.5" stroke="#D9D9D9" stroke-width="3.4375" stroke-linecap="butt" stroke-linejoin="round" stroke-miterlimit="10" stroke-opacity="1" fill="none" fill-rule="evenodd"/></g><g clip-path="url(#clip4)"><text fill="#595959" fill-opacity="1" font-family="Calibri,Calibri_MSFontService,sans-serif" font-style="normal" font-variant="normal" font-weight="400" font-stretch="normal" font-size="41" text-anchor="start" direction="ltr" writing-mode="lr-tb" unicode-bidi="normal" text-decoration="none" transform="matrix(1 0 0 1 397.008 1306)">0</text></g><g clip-path="url(#clip5)"><text fill="#595959" fill-opacity="1" font-family="Calibri,Calibri_MSFontService,sans-serif" font-style="normal" font-variant="normal" font-weight="400" font-stretch="normal" font-size="41" text-anchor="start" direction="ltr" writing-mode="lr-tb" unicode-bidi="normal" text-decoration="none" transform="matrix(1 0 0 1 376.108 1183)">20</text></g><g clip-path="url(#clip6)"><text fill="#595959" fill-opacity="1" font-family="Calibri,Calibri_MSFontService,sans-serif" font-style="normal" font-variant="normal" font-weight="400" font-stretch="normal" font-size="41" text-anchor="start" direction="ltr" writing-mode="lr-tb" unicode-bidi="normal" text-decoration="none" transform="matrix(1 0 0 1 376.108 1061)">40</text></g><g clip-path="url(#clip7)"><text fill="#595959" fill-opacity="1" font-family="Calibri,Calibri_MSFontService,sans-serif" font-style="normal" font-variant="normal" font-weight="400" font-stretch="normal" font-size="41" text-anchor="start" direction="ltr" writing-mode="lr-tb" unicode-bidi="normal" text-decoration="none" transform="matrix(1 0 0 1 376.108 938)">60</text></g><g clip-path="url(#clip8)"><text fill="#595959" fill-opacity="1" font-family="Calibri,Calibri_MSFontService,sans-serif" font-style="normal" font-variant="normal" font-weight="400" font-stretch="normal" font-size="41" text-anchor="start" direction="ltr" writing-mode="lr-tb" unicode-bidi="normal" text-decoration="none" transform="matrix(1 0 0 1 376.108 815)">80</text></g><g clip-path="url(#clip9)"><text fill="#595959" fill-opacity="1" font-family="Calibri,Calibri_MSFontService,sans-serif" font-style="normal" font-variant="normal" font-weight="400" font-stretch="normal" font-size="41" text-anchor="start" direction="ltr" writing-mode="lr-tb" unicode-bidi="normal" text-decoration="none" transform="matrix(1 0 0 1 355.208 692)">100</text></g><g clip-path="url(#clip10)"><text fill="#595959" fill-opacity="1" font-family="Calibri,Calibri_MSFontService,sans-serif" font-style="normal" font-variant="normal" font-weight="400" font-stretch="normal" font-size="41" text-anchor="start" direction="ltr" writing-mode="lr-tb" unicode-bidi="normal" text-decoration="none" transform="matrix(1 0 0 1 355.208 570)">120</text></g><g clip-path="url(#clip11)"><text fill="#595959" fill-opacity="1" font-family="Calibri,Calibri_MSFontService,sans-serif" font-style="normal" font-variant="normal" font-weight="400" font-stretch="normal" font-size="41" text-anchor="start" direction="ltr" writing-mode="lr-tb" unicode-bidi="normal" text-decoration="none" transform="matrix(1 0 0 1 462.724 1361)">1</text></g><g clip-path="url(#clip12)"><text fill="#595959" fill-opacity="1" font-family="Calibri,Calibri_MSFontService,sans-serif" font-style="normal" font-variant="normal" font-weight="400" font-stretch="normal" font-size="41" text-anchor="start" direction="ltr" writing-mode="lr-tb" unicode-bidi="normal" text-decoration="none" transform="matrix(1 0 0 1 530.72 1361)">3</text></g><g clip-path="url(#clip13)"><text fill="#595959" fill-opacity="1" font-family="Calibri,Calibri_MSFontService,sans-serif" font-style="normal" font-variant="normal" font-weight="400" font-stretch="normal" font-size="41" text-anchor="start" direction="ltr" writing-mode="lr-tb" unicode-bidi="normal" text-decoration="none" transform="matrix(1 0 0 1 598.715 1361)">5</text></g><g clip-path="url(#clip14)"><text fill="#595959" fill-opacity="1" font-family="Calibri,Calibri_MSFontService,sans-serif" font-style="normal" font-variant="normal" font-weight="400" font-stretch="normal" font-size="41" text-anchor="start" direction="ltr" writing-mode="lr-tb" unicode-bidi="normal" text-decoration="none" transform="matrix(1 0 0 1 666.711 1361)">7</text></g><g clip-path="url(#clip15)"><text fill="#595959" fill-opacity="1" font-family="Calibri,Calibri_MSFontService,sans-serif" font-style="normal" font-variant="normal" font-weight="400" font-stretch="normal" font-size="41" text-anchor="start" direction="ltr" writing-mode="lr-tb" unicode-bidi="normal" text-decoration="none" transform="matrix(1 0 0 1 734.707 1361)">9</text></g><g clip-path="url(#clip16)"><text fill="#595959" fill-opacity="1" font-family="Calibri,Calibri_MSFontService,sans-serif" font-style="normal" font-variant="normal" font-weight="400" font-stretch="normal" font-size="41" text-anchor="start" direction="ltr" writing-mode="lr-tb" unicode-bidi="normal" text-decoration="none" transform="matrix(1 0 0 1 792.252 1361)">11</text></g><g clip-path="url(#clip17)"><text fill="#595959" fill-opacity="1" font-family="Calibri,Calibri_MSFontService,sans-serif" font-style="normal" font-variant="normal" font-weight="400" font-stretch="normal" font-size="41" text-anchor="start" direction="ltr" writing-mode="lr-tb" unicode-bidi="normal" text-decoration="none" transform="matrix(1 0 0 1 860.248 1361)">13</text></g><g clip-path="url(#clip18)"><text fill="#595959" fill-opacity="1" font-family="Calibri,Calibri_MSFontService,sans-serif" font-style="normal" font-variant="normal" font-weight="400" font-stretch="normal" font-size="41" text-anchor="start" direction="ltr" writing-mode="lr-tb" unicode-bidi="normal" text-decoration="none" transform="matrix(1 0 0 1 928.244 1361)">15</text></g><g clip-path="url(#clip19)"><text fill="#595959" fill-opacity="1" font-family="Calibri,Calibri_MSFontService,sans-serif" font-style="normal" font-variant="normal" font-weight="400" font-stretch="normal" font-size="41" text-anchor="start" direction="ltr" writing-mode="lr-tb" unicode-bidi="normal" text-decoration="none" transform="matrix(1 0 0 1 996.239 1361)">17</text></g><g clip-path="url(#clip20)"><text fill="#595959" fill-opacity="1" font-family="Calibri,Calibri_MSFontService,sans-serif" font-style="normal" font-variant="normal" font-weight="400" font-stretch="normal" font-size="41" text-anchor="start" direction="ltr" writing-mode="lr-tb" unicode-bidi="normal" text-decoration="none" transform="matrix(1 0 0 1 1064.24 1361)">19</text></g><g clip-path="url(#clip21)"><text fill="#595959" fill-opacity="1" font-family="Calibri,Calibri_MSFontService,sans-serif" font-style="normal" font-variant="normal" font-weight="400" font-stretch="normal" font-size="41" text-anchor="start" direction="ltr" writing-mode="lr-tb" unicode-bidi="normal" text-decoration="none" transform="matrix(1 0 0 1 1132.23 1361)">21</text></g><g clip-path="url(#clip22)"><text fill="#595959" fill-opacity="1" font-family="Calibri,Calibri_MSFontService,sans-serif" font-style="normal" font-variant="normal" font-weight="400" font-stretch="normal" font-size="41" text-anchor="start" direction="ltr" writing-mode="lr-tb" unicode-bidi="normal" text-decoration="none" transform="matrix(1 0 0 1 1200.23 1361)">23</text></g><g clip-path="url(#clip23)"><text fill="#595959" fill-opacity="1" font-family="Calibri,Calibri_MSFontService,sans-serif" font-style="normal" font-variant="normal" font-weight="400" font-stretch="normal" font-size="41" text-anchor="start" direction="ltr" writing-mode="lr-tb" unicode-bidi="normal" text-decoration="none" transform="matrix(1 0 0 1 1268.22 1361)">25</text></g><g clip-path="url(#clip24)"><text fill="#595959" fill-opacity="1" font-family="Calibri,Calibri_MSFontService,sans-serif" font-style="normal" font-variant="normal" font-weight="400" font-stretch="normal" font-size="41" text-anchor="start" direction="ltr" writing-mode="lr-tb" unicode-bidi="normal" text-decoration="none" transform="matrix(1 0 0 1 1336.22 1361)">27</text></g><g clip-path="url(#clip25)"><text fill="#595959" fill-opacity="1" font-family="Calibri,Calibri_MSFontService,sans-serif" font-style="normal" font-variant="normal" font-weight="400" font-stretch="normal" font-size="41" text-anchor="start" direction="ltr" writing-mode="lr-tb" unicode-bidi="normal" text-decoration="none" transform="matrix(1 0 0 1 1404.21 1361)">29</text></g><g clip-path="url(#clip26)"><text fill="#595959" fill-opacity="1" font-family="Calibri,Calibri_MSFontService,sans-serif" font-style="normal" font-variant="normal" font-weight="400" font-stretch="normal" font-size="41" text-anchor="start" direction="ltr" writing-mode="lr-tb" unicode-bidi="normal" text-decoration="none" transform="matrix(1 0 0 1 1472.21 1361)">31</text></g><g clip-path="url(#clip27)"><text fill="#595959" fill-opacity="1" font-family="Calibri,Calibri_MSFontService,sans-serif" font-style="normal" font-variant="normal" font-weight="400" font-stretch="normal" font-size="41" text-anchor="start" direction="ltr" writing-mode="lr-tb" unicode-bidi="normal" text-decoration="none" transform="matrix(1 0 0 1 1540.2 1361)">33</text></g><g clip-path="url(#clip28)"><text fill="#595959" fill-opacity="1" font-family="Calibri,Calibri_MSFontService,sans-serif" font-style="normal" font-variant="normal" font-weight="400" font-stretch="normal" font-size="41" text-anchor="start" direction="ltr" writing-mode="lr-tb" unicode-bidi="normal" text-decoration="none" transform="matrix(1 0 0 1 1608.2 1361)">35</text></g><g clip-path="url(#clip29)"><text fill="#595959" fill-opacity="1" font-family="Calibri,Calibri_MSFontService,sans-serif" font-style="normal" font-variant="normal" font-weight="400" font-stretch="normal" font-size="41" text-anchor="start" direction="ltr" writing-mode="lr-tb" unicode-bidi="normal" text-decoration="none" transform="matrix(1 0 0 1 1676.2 1361)">37</text></g><g clip-path="url(#clip30)"><text fill="#595959" fill-opacity="1" font-family="Calibri,Calibri_MSFontService,sans-serif" font-style="normal" font-variant="normal" font-weight="400" font-stretch="normal" font-size="41" text-anchor="start" direction="ltr" writing-mode="lr-tb" unicode-bidi="normal" text-decoration="none" transform="matrix(1 0 0 1 1744.19 1361)">39</text></g><g clip-path="url(#clip31)"><text fill="#595959" fill-opacity="1" font-family="Calibri,Calibri_MSFontService,sans-serif" font-style="normal" font-variant="normal" font-weight="400" font-stretch="normal" font-size="41" text-anchor="start" direction="ltr" writing-mode="lr-tb" unicode-bidi="normal" text-decoration="none" transform="matrix(1 0 0 1 1812.19 1361)">41</text></g><g clip-path="url(#clip32)"><text fill="#595959" fill-opacity="1" font-family="Calibri,Calibri_MSFontService,sans-serif" font-style="normal" font-variant="normal" font-weight="400" font-stretch="normal" font-size="41" text-anchor="start" direction="ltr" writing-mode="lr-tb" unicode-bidi="normal" text-decoration="none" transform="matrix(1 0 0 1 1880.18 1361)">43</text></g><g clip-path="url(#clip33)"><text fill="#595959" fill-opacity="1" font-family="Calibri,Calibri_MSFontService,sans-serif" font-style="normal" font-variant="normal" font-weight="400" font-stretch="normal" font-size="41" text-anchor="start" direction="ltr" writing-mode="lr-tb" unicode-bidi="normal" text-decoration="none" transform="matrix(1 0 0 1 1948.18 1361)">45</text></g><g clip-path="url(#clip34)"><text fill="#595959" fill-opacity="1" font-family="Calibri,Calibri_MSFontService,sans-serif" font-style="normal" font-variant="normal" font-weight="400" font-stretch="normal" font-size="41" text-anchor="start" direction="ltr" writing-mode="lr-tb" unicode-bidi="normal" text-decoration="none" transform="matrix(1 0 0 1 2016.17 1361)">47</text></g><g clip-path="url(#clip35)"><text fill="#595959" fill-opacity="1" font-family="Calibri,Calibri_MSFontService,sans-serif" font-style="normal" font-variant="normal" font-weight="400" font-stretch="normal" font-size="41" text-anchor="start" direction="ltr" writing-mode="lr-tb" unicode-bidi="normal" text-decoration="none" transform="matrix(1 0 0 1 2084.17 1361)">49</text></g><g clip-path="url(#clip36)"><text fill="#595959" fill-opacity="1" font-family="Calibri,Calibri_MSFontService,sans-serif" font-style="normal" font-variant="normal" font-weight="400" font-stretch="normal" font-size="41" text-anchor="start" direction="ltr" writing-mode="lr-tb" unicode-bidi="normal" text-decoration="none" transform="matrix(1 0 0 1 2152.17 1361)">51</text></g><g clip-path="url(#clip37)"><text fill="#595959" fill-opacity="1" font-family="Calibri,Calibri_MSFontService,sans-serif" font-style="normal" font-variant="normal" font-weight="400" font-stretch="normal" font-size="41" text-anchor="start" direction="ltr" writing-mode="lr-tb" unicode-bidi="normal" text-decoration="none" transform="matrix(1 0 0 1 2220.16 1361)">53</text></g><g clip-path="url(#clip38)"><text fill="#595959" fill-opacity="1" font-family="Calibri,Calibri_MSFontService,sans-serif" font-style="normal" font-variant="normal" font-weight="400" font-stretch="normal" font-size="41" text-anchor="start" direction="ltr" writing-mode="lr-tb" unicode-bidi="normal" text-decoration="none" transform="matrix(1 0 0 1 2288.16 1361)">55</text></g><g clip-path="url(#clip39)"><text fill="#595959" fill-opacity="1" font-family="Calibri,Calibri_MSFontService,sans-serif" font-style="normal" font-variant="normal" font-weight="400" font-stretch="normal" font-size="41" text-anchor="start" direction="ltr" writing-mode="lr-tb" unicode-bidi="normal" text-decoration="none" transform="matrix(1 0 0 1 2356.15 1361)">57</text></g><g clip-path="url(#clip40)"><text fill="#595959" fill-opacity="1" font-family="Calibri,Calibri_MSFontService,sans-serif" font-style="normal" font-variant="normal" font-weight="400" font-stretch="normal" font-size="41" text-anchor="start" direction="ltr" writing-mode="lr-tb" unicode-bidi="normal" text-decoration="none" transform="matrix(1 0 0 1 2424.15 1361)">59</text></g><g clip-path="url(#clip41)"><text fill="#595959" fill-opacity="1" font-family="Calibri,Calibri_MSFontService,sans-serif" font-style="normal" font-variant="normal" font-weight="400" font-stretch="normal" font-size="41" text-anchor="start" direction="ltr" writing-mode="lr-tb" unicode-bidi="normal" text-decoration="none" transform="matrix(1 0 0 1 2492.14 1361)">61</text></g><g clip-path="url(#clip42)"><text fill="#595959" fill-opacity="1" font-family="Calibri,Calibri_MSFontService,sans-serif" font-style="normal" font-variant="normal" font-weight="400" font-stretch="normal" font-size="41" text-anchor="start" direction="ltr" writing-mode="lr-tb" unicode-bidi="normal" text-decoration="none" transform="matrix(1 0 0 1 2560.14 1361)">63</text></g><g clip-path="url(#clip43)"><text fill="#595959" fill-opacity="1" font-family="Calibri,Calibri_MSFontService,sans-serif" font-style="normal" font-variant="normal" font-weight="400" font-stretch="normal" font-size="41" text-anchor="start" direction="ltr" writing-mode="lr-tb" unicode-bidi="normal" text-decoration="none" transform="matrix(1 0 0 1 2628.14 1361)">65</text></g><g clip-path="url(#clip44)"><text fill="#595959" fill-opacity="1" font-family="Calibri,Calibri_MSFontService,sans-serif" font-style="normal" font-variant="normal" font-weight="400" font-stretch="normal" font-size="41" text-anchor="start" direction="ltr" writing-mode="lr-tb" unicode-bidi="normal" text-decoration="none" transform="matrix(1 0 0 1 2696.13 1361)">67</text></g><g clip-path="url(#clip45)"><text fill="#595959" fill-opacity="1" font-family="Calibri,Calibri_MSFontService,sans-serif" font-style="normal" font-variant="normal" font-weight="400" font-stretch="normal" font-size="41" text-anchor="start" direction="ltr" writing-mode="lr-tb" unicode-bidi="normal" text-decoration="none" transform="matrix(1 0 0 1 2764.13 1361)">69</text></g><g clip-path="url(#clip46)"><text fill="#595959" fill-opacity="1" font-family="Calibri,Calibri_MSFontService,sans-serif" font-style="normal" font-variant="normal" font-weight="400" font-stretch="normal" font-size="41" text-anchor="start" direction="ltr" writing-mode="lr-tb" unicode-bidi="normal" text-decoration="none" transform="matrix(1 0 0 1 2832.12 1361)">71</text></g><g clip-path="url(#clip47)"><text fill="#595959" fill-opacity="1" font-family="Calibri,Calibri_MSFontService,sans-serif" font-style="normal" font-variant="normal" font-weight="400" font-stretch="normal" font-size="41" text-anchor="start" direction="ltr" writing-mode="lr-tb" unicode-bidi="normal" text-decoration="none" transform="matrix(1 0 0 1 2900.12 1361)">73</text></g><g clip-path="url(#clip48)"><text fill="#595959" fill-opacity="1" font-family="Calibri,Calibri_MSFontService,sans-serif" font-style="normal" font-variant="normal" font-weight="400" font-stretch="normal" font-size="41" text-anchor="start" direction="ltr" writing-mode="lr-tb" unicode-bidi="normal" text-decoration="none" transform="matrix(1 0 0 1 2968.11 1361)">75</text></g><g clip-path="url(#clip49)"><text fill="#595959" fill-opacity="1" font-family="Calibri,Calibri_MSFontService,sans-serif" font-style="normal" font-variant="normal" font-weight="400" font-stretch="normal" font-size="41" text-anchor="start" direction="ltr" writing-mode="lr-tb" unicode-bidi="normal" text-decoration="none" transform="matrix(1 0 0 1 3036.11 1361)">77</text></g><g clip-path="url(#clip50)"><text fill="#595959" fill-opacity="1" font-family="Calibri,Calibri_MSFontService,sans-serif" font-style="normal" font-variant="normal" font-weight="400" font-stretch="normal" font-size="41" text-anchor="start" direction="ltr" writing-mode="lr-tb" unicode-bidi="normal" text-decoration="none" transform="matrix(1 0 0 1 3104.1 1361)">79</text></g><g clip-path="url(#clip51)"><text fill="#595959" fill-opacity="1" font-family="Calibri,Calibri_MSFontService,sans-serif" font-style="normal" font-variant="normal" font-weight="400" font-stretch="normal" font-size="41" text-anchor="start" direction="ltr" writing-mode="lr-tb" unicode-bidi="normal" text-decoration="none" transform="matrix(1 0 0 1 3172.1 1361)">81</text></g><g clip-path="url(#clip52)"><text fill="#595959" fill-opacity="1" font-family="Calibri,Calibri_MSFontService,sans-serif" font-style="normal" font-variant="normal" font-weight="400" font-stretch="normal" font-size="41" text-anchor="start" direction="ltr" writing-mode="lr-tb" unicode-bidi="normal" text-decoration="none" transform="matrix(1 0 0 1 3240.1 1361)">83</text></g><g clip-path="url(#clip53)"><text fill="#595959" fill-opacity="1" font-family="Calibri,Calibri_MSFontService,sans-serif" font-style="normal" font-variant="normal" font-weight="400" font-stretch="normal" font-size="41" text-anchor="start" direction="ltr" writing-mode="lr-tb" unicode-bidi="normal" text-decoration="none" transform="matrix(1 0 0 1 3308.09 1361)">85</text></g><g clip-path="url(#clip54)"><text fill="#595959" fill-opacity="1" font-family="Calibri,Calibri_MSFontService,sans-serif" font-style="normal" font-variant="normal" font-weight="400" font-stretch="normal" font-size="41" text-anchor="start" direction="ltr" writing-mode="lr-tb" unicode-bidi="normal" text-decoration="none" transform="matrix(1 0 0 1 3376.09 1361)">87</text></g><g clip-path="url(#clip55)"><text fill="#595959" fill-opacity="1" font-family="Calibri,Calibri_MSFontService,sans-serif" font-style="normal" font-variant="normal" font-weight="400" font-stretch="normal" font-size="41" text-anchor="start" direction="ltr" writing-mode="lr-tb" unicode-bidi="normal" text-decoration="none" transform="matrix(1 0 0 1 3444.08 1361)">89</text></g><g clip-path="url(#clip56)"><text fill="#595959" fill-opacity="1" font-family="Calibri,Calibri_MSFontService,sans-serif" font-style="normal" font-variant="normal" font-weight="400" font-stretch="normal" font-size="41" text-anchor="start" direction="ltr" writing-mode="lr-tb" unicode-bidi="normal" text-decoration="none" transform="matrix(1 0 0 1 3512.08 1361)">91</text></g><g clip-path="url(#clip57)"><text fill="#595959" fill-opacity="1" font-family="Calibri,Calibri_MSFontService,sans-serif" font-style="normal" font-variant="normal" font-weight="400" font-stretch="normal" font-size="41" text-anchor="start" direction="ltr" writing-mode="lr-tb" unicode-bidi="normal" text-decoration="none" transform="matrix(1 0 0 1 3580.07 1361)">93</text></g><g clip-path="url(#clip58)"><text fill="#595959" fill-opacity="1" font-family="Calibri,Calibri_MSFontService,sans-serif" font-style="normal" font-variant="normal" font-weight="400" font-stretch="normal" font-size="41" text-anchor="start" direction="ltr" writing-mode="lr-tb" unicode-bidi="normal" text-decoration="none" transform="matrix(1 0 0 1 3648.07 1361)">95</text></g><g clip-path="url(#clip59)"><text fill="#595959" fill-opacity="1" font-family="Calibri,Calibri_MSFontService,sans-serif" font-style="normal" font-variant="normal" font-weight="400" font-stretch="normal" font-size="41" text-anchor="start" direction="ltr" writing-mode="lr-tb" unicode-bidi="normal" text-decoration="none" transform="matrix(1 0 0 1 3716.07 1361)">97</text></g><g clip-path="url(#clip60)"><text fill="#595959" fill-opacity="1" font-family="Calibri,Calibri_MSFontService,sans-serif" font-style="normal" font-variant="normal" font-weight="400" font-stretch="normal" font-size="41" text-anchor="start" direction="ltr" writing-mode="lr-tb" unicode-bidi="normal" text-decoration="none" transform="matrix(1 0 0 1 3784.06 1361)">99</text></g><g clip-path="url(#clip61)"><text fill="#595959" fill-opacity="1" font-family="Calibri,Calibri_MSFontService,sans-serif" font-style="normal" font-variant="normal" font-weight="400" font-stretch="normal" font-size="64" text-anchor="start" direction="ltr" writing-mode="lr-tb" unicode-bidi="normal" text-decoration="none" transform="matrix(1 0 0 1 1733.59 462)">Entrée triée par ordre croissant</text></g><rect x="348.5" y="367.5" width="3584" height="1013" stroke="#D9D9D9" stroke-width="3.4375" stroke-linecap="butt" stroke-linejoin="round" stroke-miterlimit="10" stroke-opacity="1" fill="none"/></g></svg>