<svg width="3593" height="1022" xmlns="http://www.w3.org/2000/svg" xmlns:xlink="http://www.w3.org/1999/xlink" overflow="hidden"><defs><clipPath id="clip0"><rect x="4175" y="362" width="3593" height="1022"/></clipPath><clipPath id="clip1"><rect x="4180" y="366" width="3584" height="1013"/></clipPath><clipPath id="clip2"><rect x="4287" y="559" width="3404" height="740"/></clipPath><clipPath id="clip3"><rect x="4180" y="366" width="3584" height="1013"/></clipPath><clipPath id="clip4"><rect x="4180" y="366" width="3584" height="1013"/></clipPath><clipPath id="clip5"><rect x="4180" y="366" width="3584" height="1013"/></clipPath><clipPath id="clip6"><rect x="4180" y="366" width="3584" height="1013"/></clipPath><clipPath id="clip7"><rect x="4180" y="366" width="3584" height="1013"/></clipPath><clipPath id="clip8"><rect x="4180" y="366" width="3584" height="1013"/></clipPath><clipPath id="clip9"><rect x="4180" y="366" width="3584" height="1013"/></clipPath><clipPath id="clip10"><rect x="4180" y="366" width="3584" height="1013"/></clipPath><clipPath id="clip11"><rect x="4180" y="366" width="3584" height="1013"/></clipPath><clipPath id="clip12"><rect x="4180" y="366" width="3584" height="1013"/></clipPath><clipPath id="clip13"><rect x="4180" y="366" width="3584" height="1013"/></clipPath><clipPath id="clip14"><rect x="4180" y="366" width="3584" height="1013"/></clipPath><clipPath id="clip15"><rect x="4180" y="366" width="3584" height="1013"/></clipPath><clipPath id="clip16"><rect x="4180" y="366" width="3584" height="1013"/></clipPath><clipPath id="clip17"><rect x="4180" y="366" width="3584" height="1013"/></clipPath><clipPath id="clip18"><rect x="4180" y="366" width="3584" height="1013"/></clipPath><clipPath id="clip19"><rect x="4180" y="366" width="3584" height="1013"/></clipPath><clipPath id="clip20"><rect x="4180" y="366" width="3584" height="1013"/></clipPath><clipPath id="clip21"><rect x="4180" y="366" width="3584" height="1013"/></clipPath><clipPath id="clip22"><rect x="4180" y="366" width="3584" height="1013"/></clipPath><clipPath id="clip23"><rect x="4180" y="366" width="3584" height="1013"/></clipPath><clipPath id="clip24"><rect x="4180" y="366" width="3584" height="1013"/></clipPath><clipPath id="clip25"><rect x="4180" y="366" width="3584" height="1013"/></clipPath><clipPath id="clip26"><rect x="4180" y="366" width="3584" height="1013"/></clipPath><clipPath id="clip27"><rect x="4180" y="366" width="3584" height="1013"/></clipPath><clipPath id="clip28"><rect x="4180" y="366" width="3584" height="1013"/></clipPath><clipPath id="clip29"><rect x="4180" y="366" width="3584" height="1013"/></clipPath><clipPath id="clip30"><rect x="4180" y="366" width="3584" height="1013"/></clipPath><clipPath id="clip31"><rect x="4180" y="366" width="3584" height="1013"/></clipPath><clipPath id="clip32"><rect x="4180" y="366" width="3584" height="1013"/></clipPath><clipPath id="clip33"><rect x="4180" y="366" width="3584" height="1013"/></clipPath><clipPath id="clip34"><rect x="4180" y="366" width="3584" height="1013"/></clipPath><clipPath id="clip35"><rect x="4180" y="366" width="3584" height="1013"/></clipPath><clipPath id="clip36"><rect x="4180" y="366" width="3584" height="1013"/></clipPath><clipPath id="clip37"><rect x="4180" y="366" width="3584" height="1013"/></clipPath><clipPath id="clip38"><rect x="4180" y="366" width="3584" height="1013"/></clipPath><clipPath id="clip39"><rect x="4180" y="366" width="3584" height="1013"/></clipPath><clipPath id="clip40"><rect x="4180" y="366" width="3584" height="1013"/></clipPath><clipPath id="clip41"><rect x="4180" y="366" width="3584" height="1013"/></clipPath><clipPath id="clip42"><rect x="4180" y="366" width="3584" height="1013"/></clipPath><clipPath id="clip43"><rect x="4180" y="366" width="3584" height="1013"/></clipPath><clipPath id="clip44"><rect x="4180" y="366" width="3584" height="1013"/></clipPath><clipPath id="clip45"><rect x="4180" y="366" width="3584" height="1013"/></clipPath><clipPath id="clip46"><rect x="4180" y="366" width="3584" height="1013"/></clipPath><clipPath id="clip47"><rect x="4180" y="366" width="3584" height="1013"/></clipPath><clipPath id="clip48"><rect x="4180" y="366" width="3584" height="1013"/></clipPath><clipPath id="clip49"><rect x="4180" y="366" width="3584" height="1013"/></clipPath><clipPath id="clip50"><rect x="4180" y="366" width="3584" height="1013"/></clipPath><clipPath id="clip51"><rect x="4180" y="366" width="3584" height="1013"/></clipPath><clipPath id="clip52"><rect x="4180" y="366" width="3584" height="1013"/></clipPath><clipPath id="clip53"><rect x="4180" y="366" width="3584" height="1013"/></clipPath><clipPath id="clip54"><rect x="4180" y="366" width="3584" height="1013"/></clipPath><clipPath id="clip55"><rect x="4180" y="366" width="3584" height="1013"/></clipPath><clipPath id="clip56"><rect x="4180" y="366" width="3584" height="1013"/></clipPath><clipPath id="clip57"><rect x="4180" y="366" width="3584" height="1013"/></clipPath><clipPath id="clip58"><rect x="4180" y="366" width="3584" height="1013"/></clipPath><clipPath id="clip59"><rect x="4180" y="366" width="3584" height="1013"/></clipPath><clipPath id="clip60"><rect x="4180" y="366" width="3584" height="1013"/></clipPath><clipPath id="clip61"><rect x="4180" y="366" width="3584" height="1013"/></clipPath></defs><g clip-path="url(#clip0)" transform="translate(-4175 -362)"><rect x="4180" y="367" width="3584" height="1013" fill="#FFFFFF" fill-opacity="1"/><g clip-path="url(#clip1)"><path d="M4287.5 1173.54 7687.5 1173.54M4287.5 1050.53 7687.5 1050.53M4287.5 927.531 7687.5 927.531M4287.5 805.527 7687.5 805.527M4287.5 682.523 7687.5 682.523M4287.5 559.5 7687.5 559.5" stroke="#D9D9D9" stroke-width="3.4375" stroke-linecap="butt" stroke-linejoin="round" stroke-miterlimit="10" stroke-opacity="1" fill="none" fill-rule="nonzero"/></g><g clip-path="url(#clip2)"><path d="M4299.14 688.023 4310.14 688.023 4310.14 1296 4299.14 1296ZM4333.14 695.023 4344.14 695.023 4344.14 1296 4333.14 1296ZM4367.14 701.023 4378.14 701.023 4378.14 1296 4367.14 1296ZM4401.14 707.023 4412.15 707.023 4412.15 1296 4401.14 1296ZM4435.15 713.023 4446.15 713.023 4446.15 1296 4435.15 1296ZM4469.15 719.024 4480.15 719.024 4480.15 1296 4469.15 1296ZM4503.15 725.024 4514.15 725.024 4514.15 1296 4503.15 1296ZM4537.15 731.024 4548.15 731.024 4548.15 1296 4537.15 1296ZM4571.15 738.024 4582.15 738.024 4582.15 1296 4571.15 1296ZM4605.15 744.024 4616.15 744.024 4616.15 1296 4605.15 1296ZM4639.15 750.025 4650.15 750.025 4650.15 1296 4639.15 1296ZM4673.15 756.025 4684.15 756.025 4684.15 1296 4673.15 1296ZM4707.15 762.025 4718.15 762.025 4718.15 1296 4707.15 1296ZM4741.16 768.025 4752.16 768.025 4752.16 1296 4741.16 1296ZM4775.16 774.025 4786.16 774.025 4786.16 1296 4775.16 1296ZM4809.16 781.026 4820.16 781.026 4820.16 1296 4809.16 1296ZM4843.16 787.026 4854.16 787.026 4854.16 1296 4843.16 1296ZM4877.16 793.026 4888.16 793.026 4888.16 1296 4877.16 1296ZM4911.16 799.026 4922.16 799.026 4922.16 1296 4911.16 1296ZM4945.16 805.026 4956.16 805.026 4956.16 1296 4945.16 1296ZM4979.16 811.027 4990.16 811.027 4990.16 1296 4979.16 1296ZM5013.16 817.027 5024.17 817.027 5024.17 1296 5013.16 1296ZM5047.17 823.027 5058.17 823.027 5058.17 1296 5047.17 1296ZM5081.17 830.027 5092.17 830.027 5092.17 1296 5081.17 1296ZM5115.17 836.027 5126.17 836.027 5126.17 1296 5115.17 1296ZM5149.17 842.028 5160.17 842.028 5160.17 1296 5149.17 1296ZM5183.17 848.028 5194.17 848.028 5194.17 1296 5183.17 1296ZM5217.17 854.028 5228.17 854.028 5228.17 1296 5217.17 1296ZM5251.17 860.028 5262.17 860.028 5262.17 1296 5251.17 1296ZM5285.17 866.028 5296.17 866.028 5296.17 1296 5285.17 1296ZM5319.17 873.029 5330.17 873.029 5330.17 1296 5319.17 1296ZM5353.18 879.029 5364.18 879.029 5364.18 1296 5353.18 1296ZM5387.18 885.029 5398.18 885.029 5398.18 1296 5387.18 1296ZM5421.18 891.029 5432.18 891.029 5432.18 1296 5421.18 1296ZM5455.18 897.029 5466.18 897.029 5466.18 1296 5455.18 1296ZM5489.18 903.03 5500.18 903.03 5500.18 1296 5489.18 1296ZM5523.18 909.03 5534.18 909.03 5534.18 1296 5523.18 1296ZM5557.18 916.03 5568.18 916.03 5568.18 1296 5557.18 1296ZM5591.18 922.03 5602.18 922.03 5602.18 1296 5591.18 1296ZM5625.18 928.03 5636.19 928.03 5636.19 1296 5625.18 1296ZM5659.19 934.031 5670.19 934.031 5670.19 1296 5659.19 1296ZM5693.19 940.031 5704.19 940.031 5704.19 1296 5693.19 1296ZM5727.19 946.031 5738.19 946.031 5738.19 1296 5727.19 1296ZM5761.19 952.031 5772.19 952.031 5772.19 1296 5761.19 1296ZM5795.19 959.031 5806.19 959.031 5806.19 1296 5795.19 1296ZM5829.19 965.032 5840.19 965.032 5840.19 1296 5829.19 1296ZM5863.19 971.032 5874.19 971.032 5874.19 1296 5863.19 1296ZM5897.19 977.032 5908.19 977.032 5908.19 1296 5897.19 1296ZM5931.19 983.032 5942.19 983.032 5942.19 1296 5931.19 1296ZM5965.2 989.032 5976.2 989.032 5976.2 1296 5965.2 1296ZM5999.2 995.033 6010.2 995.033 6010.2 1296 5999.2 1296ZM6033.2 1002.03 6044.2 1002.03 6044.2 1296 6033.2 1296ZM6067.2 1008.03 6078.2 1008.03 6078.2 1296 6067.2 1296ZM6101.2 1014.03 6112.2 1014.03 6112.2 1296 6101.2 1296ZM6135.2 1020.03 6146.2 1020.03 6146.2 1296 6135.2 1296ZM6169.2 1026.03 6180.2 1026.03 6180.2 1296 6169.2 1296ZM6203.2 1032.03 6214.2 1032.03 6214.2 1296 6203.2 1296ZM6237.2 1038.03 6248.21 1038.03 6248.21 1296 6237.2 1296ZM6271.21 1044.03 6282.21 1044.03 6282.21 1296 6271.21 1296ZM6305.21 1051.03 6316.21 1051.03 6316.21 1296 6305.21 1296ZM6339.21 1057.03 6350.21 1057.03 6350.21 1296 6339.21 1296ZM6373.21 1063.03 6384.21 1063.03 6384.21 1296 6373.21 1296ZM6407.21 1069.04 6418.21 1069.04 6418.21 1296 6407.21 1296ZM6441.21 1075.04 6452.21 1075.04 6452.21 1296 6441.21 1296ZM6475.21 1081.04 6486.21 1081.04 6486.21 1296 6475.21 1296ZM6509.21 1087.04 6520.21 1087.04 6520.21 1296 6509.21 1296ZM6543.21 1094.04 6554.21 1094.04 6554.21 1296 6543.21 1296ZM6577.22 1100.04 6588.22 1100.04 6588.22 1296 6577.22 1296ZM6611.22 1106.04 6622.22 1106.04 6622.22 1296 6611.22 1296ZM6645.22 1112.04 6656.22 1112.04 6656.22 1296 6645.22 1296ZM6679.22 1118.04 6690.22 1118.04 6690.22 1296 6679.22 1296ZM6713.22 1124.04 6724.22 1124.04 6724.22 1296 6713.22 1296ZM6747.22 1130.04 6758.22 1130.04 6758.22 1296 6747.22 1296ZM6781.22 1137.04 6792.22 1137.04 6792.22 1296 6781.22 1296ZM6815.22 1143.04 6826.22 1143.04 6826.22 1296 6815.22 1296ZM6849.22 1149.04 6860.23 1149.04 6860.23 1296 6849.22 1296ZM6883.23 1155.04 6894.23 1155.04 6894.23 1296 6883.23 1296ZM6917.23 1161.04 6928.23 1161.04 6928.23 1296 6917.23 1296ZM6951.23 1167.04 6962.23 1167.04 6962.23 1296 6951.23 1296ZM6985.23 1173.04 6996.23 1173.04 6996.23 1296 6985.23 1296ZM7019.23 1180.04 7030.23 1180.04 7030.23 1296 7019.23 1296ZM7053.23 1186.04 7064.23 1186.04 7064.23 1296 7053.23 1296ZM7087.23 1192.04 7098.23 1192.04 7098.23 1296 7087.23 1296ZM7121.23 1198.04 7132.23 1198.04 7132.23 1296 7121.23 1296ZM7155.23 1204.04 7166.24 1204.04 7166.24 1296 7155.23 1296ZM7189.24 1210.04 7200.24 1210.04 7200.24 1296 7189.24 1296ZM7223.24 1216.04 7234.24 1216.04 7234.24 1296 7223.24 1296ZM7257.24 1222.04 7268.24 1222.04 7268.24 1296 7257.24 1296ZM7291.24 1229.04 7302.24 1229.04 7302.24 1296 7291.24 1296ZM7325.24 1235.04 7336.24 1235.04 7336.24 1296 7325.24 1296ZM7359.24 1241.04 7370.24 1241.04 7370.24 1296 7359.24 1296ZM7393.24 1247.04 7404.24 1247.04 7404.24 1296 7393.24 1296ZM7427.24 1253.04 7438.24 1253.04 7438.24 1296 7427.24 1296ZM7461.24 1259.04 7472.25 1259.04 7472.25 1296 7461.24 1296ZM7495.25 1265.04 7506.25 1265.04 7506.25 1296 7495.25 1296ZM7529.25 1272.04 7540.25 1272.04 7540.25 1296 7529.25 1296ZM7563.25 1278.04 7574.25 1278.04 7574.25 1296 7563.25 1296ZM7597.25 1284.04 7608.25 1284.04 7608.25 1296 7597.25 1296ZM7631.25 1290.04 7642.25 1290.04 7642.25 1296 7631.25 1296Z" fill="#4472C4" fill-rule="nonzero" fill-opacity="1"/></g><g clip-path="url(#clip3)"><path d="M4287.5 1296.5 7687.5 1296.5" stroke="#D9D9D9" stroke-width="3.4375" stroke-linecap="butt" stroke-linejoin="round" stroke-miterlimit="10" stroke-opacity="1" fill="none" fill-rule="evenodd"/></g><g clip-path="url(#clip4)"><text fill="#595959" fill-opacity="1" font-family="Calibri,Calibri_MSFontService,sans-serif" font-style="normal" font-variant="normal" font-weight="400" font-stretch="normal" font-size="41" text-anchor="start" direction="ltr" writing-mode="lr-tb" unicode-bidi="normal" text-decoration="none" transform="matrix(1 0 0 1 4228.67 1306)">0</text></g><g clip-path="url(#clip5)"><text fill="#595959" fill-opacity="1" font-family="Calibri,Calibri_MSFontService,sans-serif" font-style="normal" font-variant="normal" font-weight="400" font-stretch="normal" font-size="41" text-anchor="start" direction="ltr" writing-mode="lr-tb" unicode-bidi="normal" text-decoration="none" transform="matrix(1 0 0 1 4207.77 1183)">20</text></g><g clip-path="url(#clip6)"><text fill="#595959" fill-opacity="1" font-family="Calibri,Calibri_MSFontService,sans-serif" font-style="normal" font-variant="normal" font-weight="400" font-stretch="normal" font-size="41" text-anchor="start" direction="ltr" writing-mode="lr-tb" unicode-bidi="normal" text-decoration="none" transform="matrix(1 0 0 1 4207.77 1061)">40</text></g><g clip-path="url(#clip7)"><text fill="#595959" fill-opacity="1" font-family="Calibri,Calibri_MSFontService,sans-serif" font-style="normal" font-variant="normal" font-weight="400" font-stretch="normal" font-size="41" text-anchor="start" direction="ltr" writing-mode="lr-tb" unicode-bidi="normal" text-decoration="none" transform="matrix(1 0 0 1 4207.77 938)">60</text></g><g clip-path="url(#clip8)"><text fill="#595959" fill-opacity="1" font-family="Calibri,Calibri_MSFontService,sans-serif" font-style="normal" font-variant="normal" font-weight="400" font-stretch="normal" font-size="41" text-anchor="start" direction="ltr" writing-mode="lr-tb" unicode-bidi="normal" text-decoration="none" transform="matrix(1 0 0 1 4207.77 815)">80</text></g><g clip-path="url(#clip9)"><text fill="#595959" fill-opacity="1" font-family="Calibri,Calibri_MSFontService,sans-serif" font-style="normal" font-variant="normal" font-weight="400" font-stretch="normal" font-size="41" text-anchor="start" direction="ltr" writing-mode="lr-tb" unicode-bidi="normal" text-decoration="none" transform="matrix(1 0 0 1 4186.88 692)">100</text></g><g clip-path="url(#clip10)"><text fill="#595959" fill-opacity="1" font-family="Calibri,Calibri_MSFontService,sans-serif" font-style="normal" font-variant="normal" font-weight="400" font-stretch="normal" font-size="41" text-anchor="start" direction="ltr" writing-mode="lr-tb" unicode-bidi="normal" text-decoration="none" transform="matrix(1 0 0 1 4186.88 570)">120</text></g><g clip-path="url(#clip11)"><text fill="#595959" fill-opacity="1" font-family="Calibri,Calibri_MSFontService,sans-serif" font-style="normal" font-variant="normal" font-weight="400" font-stretch="normal" font-size="41" text-anchor="start" direction="ltr" writing-mode="lr-tb" unicode-bidi="normal" text-decoration="none" transform="matrix(1 0 0 1 4294.39 1361)">1</text></g><g clip-path="url(#clip12)"><text fill="#595959" fill-opacity="1" font-family="Calibri,Calibri_MSFontService,sans-serif" font-style="normal" font-variant="normal" font-weight="400" font-stretch="normal" font-size="41" text-anchor="start" direction="ltr" writing-mode="lr-tb" unicode-bidi="normal" text-decoration="none" transform="matrix(1 0 0 1 4362.39 1361)">3</text></g><g clip-path="url(#clip13)"><text fill="#595959" fill-opacity="1" font-family="Calibri,Calibri_MSFontService,sans-serif" font-style="normal" font-variant="normal" font-weight="400" font-stretch="normal" font-size="41" text-anchor="start" direction="ltr" writing-mode="lr-tb" unicode-bidi="normal" text-decoration="none" transform="matrix(1 0 0 1 4430.38 1361)">5</text></g><g clip-path="url(#clip14)"><text fill="#595959" fill-opacity="1" font-family="Calibri,Calibri_MSFontService,sans-serif" font-style="normal" font-variant="normal" font-weight="400" font-stretch="normal" font-size="41" text-anchor="start" direction="ltr" writing-mode="lr-tb" unicode-bidi="normal" text-decoration="none" transform="matrix(1 0 0 1 4498.38 1361)">7</text></g><g clip-path="url(#clip15)"><text fill="#595959" fill-opacity="1" font-family="Calibri,Calibri_MSFontService,sans-serif" font-style="normal" font-variant="normal" font-weight="400" font-stretch="normal" font-size="41" text-anchor="start" direction="ltr" writing-mode="lr-tb" unicode-bidi="normal" text-decoration="none" transform="matrix(1 0 0 1 4566.37 1361)">9</text></g><g clip-path="url(#clip16)"><text fill="#595959" fill-opacity="1" font-family="Calibri,Calibri_MSFontService,sans-serif" font-style="normal" font-variant="normal" font-weight="400" font-stretch="normal" font-size="41" text-anchor="start" direction="ltr" writing-mode="lr-tb" unicode-bidi="normal" text-decoration="none" transform="matrix(1 0 0 1 4623.92 1361)">11</text></g><g clip-path="url(#clip17)"><text fill="#595959" fill-opacity="1" font-family="Calibri,Calibri_MSFontService,sans-serif" font-style="normal" font-variant="normal" font-weight="400" font-stretch="normal" font-size="41" text-anchor="start" direction="ltr" writing-mode="lr-tb" unicode-bidi="normal" text-decoration="none" transform="matrix(1 0 0 1 4691.91 1361)">13</text></g><g clip-path="url(#clip18)"><text fill="#595959" fill-opacity="1" font-family="Calibri,Calibri_MSFontService,sans-serif" font-style="normal" font-variant="normal" font-weight="400" font-stretch="normal" font-size="41" text-anchor="start" direction="ltr" writing-mode="lr-tb" unicode-bidi="normal" text-decoration="none" transform="matrix(1 0 0 1 4759.91 1361)">15</text></g><g clip-path="url(#clip19)"><text fill="#595959" fill-opacity="1" font-family="Calibri,Calibri_MSFontService,sans-serif" font-style="normal" font-variant="normal" font-weight="400" font-stretch="normal" font-size="41" text-anchor="start" direction="ltr" writing-mode="lr-tb" unicode-bidi="normal" text-decoration="none" transform="matrix(1 0 0 1 4827.91 1361)">17</text></g><g clip-path="url(#clip20)"><text fill="#595959" fill-opacity="1" font-family="Calibri,Calibri_MSFontService,sans-serif" font-style="normal" font-variant="normal" font-weight="400" font-stretch="normal" font-size="41" text-anchor="start" direction="ltr" writing-mode="lr-tb" unicode-bidi="normal" text-decoration="none" transform="matrix(1 0 0 1 4895.9 1361)">19</text></g><g clip-path="url(#clip21)"><text fill="#595959" fill-opacity="1" font-family="Calibri,Calibri_MSFontService,sans-serif" font-style="normal" font-variant="normal" font-weight="400" font-stretch="normal" font-size="41" text-anchor="start" direction="ltr" writing-mode="lr-tb" unicode-bidi="normal" text-decoration="none" transform="matrix(1 0 0 1 4963.9 1361)">21</text></g><g clip-path="url(#clip22)"><text fill="#595959" fill-opacity="1" font-family="Calibri,Calibri_MSFontService,sans-serif" font-style="normal" font-variant="normal" font-weight="400" font-stretch="normal" font-size="41" text-anchor="start" direction="ltr" writing-mode="lr-tb" unicode-bidi="normal" text-decoration="none" transform="matrix(1 0 0 1 5031.89 1361)">23</text></g><g clip-path="url(#clip23)"><text fill="#595959" fill-opacity="1" font-family="Calibri,Calibri_MSFontService,sans-serif" font-style="normal" font-variant="normal" font-weight="400" font-stretch="normal" font-size="41" text-anchor="start" direction="ltr" writing-mode="lr-tb" unicode-bidi="normal" text-decoration="none" transform="matrix(1 0 0 1 5099.89 1361)">25</text></g><g clip-path="url(#clip24)"><text fill="#595959" fill-opacity="1" font-family="Calibri,Calibri_MSFontService,sans-serif" font-style="normal" font-variant="normal" font-weight="400" font-stretch="normal" font-size="41" text-anchor="start" direction="ltr" writing-mode="lr-tb" unicode-bidi="normal" text-decoration="none" transform="matrix(1 0 0 1 5167.88 1361)">27</text></g><g clip-path="url(#clip25)"><text fill="#595959" fill-opacity="1" font-family="Calibri,Calibri_MSFontService,sans-serif" font-style="normal" font-variant="normal" font-weight="400" font-stretch="normal" font-size="41" text-anchor="start" direction="ltr" writing-mode="lr-tb" unicode-bidi="normal" text-decoration="none" transform="matrix(1 0 0 1 5235.88 1361)">29</text></g><g clip-path="url(#clip26)"><text fill="#595959" fill-opacity="1" font-family="Calibri,Calibri_MSFontService,sans-serif" font-style="normal" font-variant="normal" font-weight="400" font-stretch="normal" font-size="41" text-anchor="start" direction="ltr" writing-mode="lr-tb" unicode-bidi="normal" text-decoration="none" transform="matrix(1 0 0 1 5303.88 1361)">31</text></g><g clip-path="url(#clip27)"><text fill="#595959" fill-opacity="1" font-family="Calibri,Calibri_MSFontService,sans-serif" font-style="normal" font-variant="normal" font-weight="400" font-stretch="normal" font-size="41" text-anchor="start" direction="ltr" writing-mode="lr-tb" unicode-bidi="normal" text-decoration="none" transform="matrix(1 0 0 1 5371.87 1361)">33</text></g><g clip-path="url(#clip28)"><text fill="#595959" fill-opacity="1" font-family="Calibri,Calibri_MSFontService,sans-serif" font-style="normal" font-variant="normal" font-weight="400" font-stretch="normal" font-size="41" text-anchor="start" direction="ltr" writing-mode="lr-tb" unicode-bidi="normal" text-decoration="none" transform="matrix(1 0 0 1 5439.87 1361)">35</text></g><g clip-path="url(#clip29)"><text fill="#595959" fill-opacity="1" font-family="Calibri,Calibri_MSFontService,sans-serif" font-style="normal" font-variant="normal" font-weight="400" font-stretch="normal" font-size="41" text-anchor="start" direction="ltr" writing-mode="lr-tb" unicode-bidi="normal" text-decoration="none" transform="matrix(1 0 0 1 5507.86 1361)">37</text></g><g clip-path="url(#clip30)"><text fill="#595959" fill-opacity="1" font-family="Calibri,Calibri_MSFontService,sans-serif" font-style="normal" font-variant="normal" font-weight="400" font-stretch="normal" font-size="41" text-anchor="start" direction="ltr" writing-mode="lr-tb" unicode-bidi="normal" text-decoration="none" transform="matrix(1 0 0 1 5575.86 1361)">39</text></g><g clip-path="url(#clip31)"><text fill="#595959" fill-opacity="1" font-family="Calibri,Calibri_MSFontService,sans-serif" font-style="normal" font-variant="normal" font-weight="400" font-stretch="normal" font-size="41" text-anchor="start" direction="ltr" writing-mode="lr-tb" unicode-bidi="normal" text-decoration="none" transform="matrix(1 0 0 1 5643.85 1361)">41</text></g><g clip-path="url(#clip32)"><text fill="#595959" fill-opacity="1" font-family="Calibri,Calibri_MSFontService,sans-serif" font-style="normal" font-variant="normal" font-weight="400" font-stretch="normal" font-size="41" text-anchor="start" direction="ltr" writing-mode="lr-tb" unicode-bidi="normal" text-decoration="none" transform="matrix(1 0 0 1 5711.85 1361)">43</text></g><g clip-path="url(#clip33)"><text fill="#595959" fill-opacity="1" font-family="Calibri,Calibri_MSFontService,sans-serif" font-style="normal" font-variant="normal" font-weight="400" font-stretch="normal" font-size="41" text-anchor="start" direction="ltr" writing-mode="lr-tb" unicode-bidi="normal" text-decoration="none" transform="matrix(1 0 0 1 5779.85 1361)">45</text></g><g clip-path="url(#clip34)"><text fill="#595959" fill-opacity="1" font-family="Calibri,Calibri_MSFontService,sans-serif" font-style="normal" font-variant="normal" font-weight="400" font-stretch="normal" font-size="41" text-anchor="start" direction="ltr" writing-mode="lr-tb" unicode-bidi="normal" text-decoration="none" transform="matrix(1 0 0 1 5847.84 1361)">47</text></g><g clip-path="url(#clip35)"><text fill="#595959" fill-opacity="1" font-family="Calibri,Calibri_MSFontService,sans-serif" font-style="normal" font-variant="normal" font-weight="400" font-stretch="normal" font-size="41" text-anchor="start" direction="ltr" writing-mode="lr-tb" unicode-bidi="normal" text-decoration="none" transform="matrix(1 0 0 1 5915.84 1361)">49</text></g><g clip-path="url(#clip36)"><text fill="#595959" fill-opacity="1" font-family="Calibri,Calibri_MSFontService,sans-serif" font-style="normal" font-variant="normal" font-weight="400" font-stretch="normal" font-size="41" text-anchor="start" direction="ltr" writing-mode="lr-tb" unicode-bidi="normal" text-decoration="none" transform="matrix(1 0 0 1 5983.83 1361)">51</text></g><g clip-path="url(#clip37)"><text fill="#595959" fill-opacity="1" font-family="Calibri,Calibri_MSFontService,sans-serif" font-style="normal" font-variant="normal" font-weight="400" font-stretch="normal" font-size="41" text-anchor="start" direction="ltr" writing-mode="lr-tb" unicode-bidi="normal" text-decoration="none" transform="matrix(1 0 0 1 6051.83 1361)">53</text></g><g clip-path="url(#clip38)"><text fill="#595959" fill-opacity="1" font-family="Calibri,Calibri_MSFontService,sans-serif" font-style="normal" font-variant="normal" font-weight="400" font-stretch="normal" font-size="41" text-anchor="start" direction="ltr" writing-mode="lr-tb" unicode-bidi="normal" text-decoration="none" transform="matrix(1 0 0 1 6119.82 1361)">55</text></g><g clip-path="url(#clip39)"><text fill="#595959" fill-opacity="1" font-family="Calibri,Calibri_MSFontService,sans-serif" font-style="normal" font-variant="normal" font-weight="400" font-stretch="normal" font-size="41" text-anchor="start" direction="ltr" writing-mode="lr-tb" unicode-bidi="normal" text-decoration="none" transform="matrix(1 0 0 1 6187.82 1361)">57</text></g><g clip-path="url(#clip40)"><text fill="#595959" fill-opacity="1" font-family="Calibri,Calibri_MSFontService,sans-serif" font-style="normal" font-variant="normal" font-weight="400" font-stretch="normal" font-size="41" text-anchor="start" direction="ltr" writing-mode="lr-tb" unicode-bidi="normal" text-decoration="none" transform="matrix(1 0 0 1 6255.81 1361)">59</text></g><g clip-path="url(#clip41)"><text fill="#595959" fill-opacity="1" font-family="Calibri,Calibri_MSFontService,sans-serif" font-style="normal" font-variant="normal" font-weight="400" font-stretch="normal" font-size="41" text-anchor="start" direction="ltr" writing-mode="lr-tb" unicode-bidi="normal" text-decoration="none" transform="matrix(1 0 0 1 6323.81 1361)">61</text></g><g clip-path="url(#clip42)"><text fill="#595959" fill-opacity="1" font-family="Calibri,Calibri_MSFontService,sans-serif" font-style="normal" font-variant="normal" font-weight="400" font-stretch="normal" font-size="41" text-anchor="start" direction="ltr" writing-mode="lr-tb" unicode-bidi="normal" text-decoration="none" transform="matrix(1 0 0 1 6391.81 1361)">63</text></g><g clip-path="url(#clip43)"><text fill="#595959" fill-opacity="1" font-family="Calibri,Calibri_MSFontService,sans-serif" font-style="normal" font-variant="normal" font-weight="400" font-stretch="normal" font-size="41" text-anchor="start" direction="ltr" writing-mode="lr-tb" unicode-bidi="normal" text-decoration="none" transform="matrix(1 0 0 1 6459.8 1361)">65</text></g><g clip-path="url(#clip44)"><text fill="#595959" fill-opacity="1" font-family="Calibri,Calibri_MSFontService,sans-serif" font-style="normal" font-variant="normal" font-weight="400" font-stretch="normal" font-size="41" text-anchor="start" direction="ltr" writing-mode="lr-tb" unicode-bidi="normal" text-decoration="none" transform="matrix(1 0 0 1 6527.8 1361)">67</text></g><g clip-path="url(#clip45)"><text fill="#595959" fill-opacity="1" font-family="Calibri,Calibri_MSFontService,sans-serif" font-style="normal" font-variant="normal" font-weight="400" font-stretch="normal" font-size="41" text-anchor="start" direction="ltr" writing-mode="lr-tb" unicode-bidi="normal" text-decoration="none" transform="matrix(1 0 0 1 6595.79 1361)">69</text></g><g clip-path="url(#clip46)"><text fill="#595959" fill-opacity="1" font-family="Calibri,Calibri_MSFontService,sans-serif" font-style="normal" font-variant="normal" font-weight="400" font-stretch="normal" font-size="41" text-anchor="start" direction="ltr" writing-mode="lr-tb" unicode-bidi="normal" text-decoration="none" transform="matrix(1 0 0 1 6663.79 1361)">71</text></g><g clip-path="url(#clip47)"><text fill="#595959" fill-opacity="1" font-family="Calibri,Calibri_MSFontService,sans-serif" font-style="normal" font-variant="normal" font-weight="400" font-stretch="normal" font-size="41" text-anchor="start" direction="ltr" writing-mode="lr-tb" unicode-bidi="normal" text-decoration="none" transform="matrix(1 0 0 1 6731.78 1361)">73</text></g><g clip-path="url(#clip48)"><text fill="#595959" fill-opacity="1" font-family="Calibri,Calibri_MSFontService,sans-serif" font-style="normal" font-variant="normal" font-weight="400" font-stretch="normal" font-size="41" text-anchor="start" direction="ltr" writing-mode="lr-tb" unicode-bidi="normal" text-decoration="none" transform="matrix(1 0 0 1 6799.78 1361)">75</text></g><g clip-path="url(#clip49)"><text fill="#595959" fill-opacity="1" font-family="Calibri,Calibri_MSFontService,sans-serif" font-style="normal" font-variant="normal" font-weight="400" font-stretch="normal" font-size="41" text-anchor="start" direction="ltr" writing-mode="lr-tb" unicode-bidi="normal" text-decoration="none" transform="matrix(1 0 0 1 6867.78 1361)">77</text></g><g clip-path="url(#clip50)"><text fill="#595959" fill-opacity="1" font-family="Calibri,Calibri_MSFontService,sans-serif" font-style="normal" font-variant="normal" font-weight="400" font-stretch="normal" font-size="41" text-anchor="start" direction="ltr" writing-mode="lr-tb" unicode-bidi="normal" text-decoration="none" transform="matrix(1 0 0 1 6935.77 1361)">79</text></g><g clip-path="url(#clip51)"><text fill="#595959" fill-opacity="1" font-family="Calibri,Calibri_MSFontService,sans-serif" font-style="normal" font-variant="normal" font-weight="400" font-stretch="normal" font-size="41" text-anchor="start" direction="ltr" writing-mode="lr-tb" unicode-bidi="normal" text-decoration="none" transform="matrix(1 0 0 1 7003.77 1361)">81</text></g><g clip-path="url(#clip52)"><text fill="#595959" fill-opacity="1" font-family="Calibri,Calibri_MSFontService,sans-serif" font-style="normal" font-variant="normal" font-weight="400" font-stretch="normal" font-size="41" text-anchor="start" direction="ltr" writing-mode="lr-tb" unicode-bidi="normal" text-decoration="none" transform="matrix(1 0 0 1 7071.76 1361)">83</text></g><g clip-path="url(#clip53)"><text fill="#595959" fill-opacity="1" font-family="Calibri,Calibri_MSFontService,sans-serif" font-style="normal" font-variant="normal" font-weight="400" font-stretch="normal" font-size="41" text-anchor="start" direction="ltr" writing-mode="lr-tb" unicode-bidi="normal" text-decoration="none" transform="matrix(1 0 0 1 7139.76 1361)">85</text></g><g clip-path="url(#clip54)"><text fill="#595959" fill-opacity="1" font-family="Calibri,Calibri_MSFontService,sans-serif" font-style="normal" font-variant="normal" font-weight="400" font-stretch="normal" font-size="41" text-anchor="start" direction="ltr" writing-mode="lr-tb" unicode-bidi="normal" text-decoration="none" transform="matrix(1 0 0 1 7207.75 1361)">87</text></g><g clip-path="url(#clip55)"><text fill="#595959" fill-opacity="1" font-family="Calibri,Calibri_MSFontService,sans-serif" font-style="normal" font-variant="normal" font-weight="400" font-stretch="normal" font-size="41" text-anchor="start" direction="ltr" writing-mode="lr-tb" unicode-bidi="normal" text-decoration="none" transform="matrix(1 0 0 1 7275.75 1361)">89</text></g><g clip-path="url(#clip56)"><text fill="#595959" fill-opacity="1" font-family="Calibri,Calibri_MSFontService,sans-serif" font-style="normal" font-variant="normal" font-weight="400" font-stretch="normal" font-size="41" text-anchor="start" direction="ltr" writing-mode="lr-tb" unicode-bidi="normal" text-decoration="none" transform="matrix(1 0 0 1 7343.75 1361)">91</text></g><g clip-path="url(#clip57)"><text fill="#595959" fill-opacity="1" font-family="Calibri,Calibri_MSFontService,sans-serif" font-style="normal" font-variant="normal" font-weight="400" font-stretch="normal" font-size="41" text-anchor="start" direction="ltr" writing-mode="lr-tb" unicode-bidi="normal" text-decoration="none" transform="matrix(1 0 0 1 7411.74 1361)">93</text></g><g clip-path="url(#clip58)"><text fill="#595959" fill-opacity="1" font-family="Calibri,Calibri_MSFontService,sans-serif" font-style="normal" font-variant="normal" font-weight="400" font-stretch="normal" font-size="41" text-anchor="start" direction="ltr" writing-mode="lr-tb" unicode-bidi="normal" text-decoration="none" transform="matrix(1 0 0 1 7479.74 1361)">95</text></g><g clip-path="url(#clip59)"><text fill="#595959" fill-opacity="1" font-family="Calibri,Calibri_MSFontService,sans-serif" font-style="normal" font-variant="normal" font-weight="400" font-stretch="normal" font-size="41" text-anchor="start" direction="ltr" writing-mode="lr-tb" unicode-bidi="normal" text-decoration="none" transform="matrix(1 0 0 1 7547.73 1361)">97</text></g><g clip-path="url(#clip60)"><text fill="#595959" fill-opacity="1" font-family="Calibri,Calibri_MSFontService,sans-serif" font-style="normal" font-variant="normal" font-weight="400" font-stretch="normal" font-size="41" text-anchor="start" direction="ltr" writing-mode="lr-tb" unicode-bidi="normal" text-decoration="none" transform="matrix(1 0 0 1 7615.73 1361)">99</text></g><g clip-path="url(#clip61)"><text fill="#595959" fill-opacity="1" font-family="Calibri,Calibri_MSFontService,sans-serif" font-style="normal" font-variant="normal" font-weight="400" font-stretch="normal" font-size="64" text-anchor="start" direction="ltr" writing-mode="lr-tb" unicode-bidi="normal" text-decoration="none" transform="matrix(1 0 0 1 5390.71 462)">Entrée inverse par rapport à l'ordre croissant</text></g><rect x="4180.5" y="367.5" width="3584" height="1013" stroke="#D9D9D9" stroke-width="3.4375" stroke-linecap="butt" stroke-linejoin="round" stroke-miterlimit="10" stroke-opacity="1" fill="none"/></g></svg>