<svg width="3593" height="1022" xmlns="http://www.w3.org/2000/svg" xmlns:xlink="http://www.w3.org/1999/xlink" overflow="hidden"><defs><clipPath id="clip0"><rect x="4175" y="1535" width="3593" height="1022"/></clipPath><clipPath id="clip1"><rect x="4180" y="1540" width="3584" height="1012"/></clipPath><clipPath id="clip2"><rect x="4287" y="1732" width="3404" height="740"/></clipPath><clipPath id="clip3"><rect x="4180" y="1540" width="3584" height="1012"/></clipPath><clipPath id="clip4"><rect x="4180" y="1540" width="3584" height="1012"/></clipPath><clipPath id="clip5"><rect x="4180" y="1540" width="3584" height="1012"/></clipPath><clipPath id="clip6"><rect x="4180" y="1540" width="3584" height="1012"/></clipPath><clipPath id="clip7"><rect x="4180" y="1540" width="3584" height="1012"/></clipPath><clipPath id="clip8"><rect x="4180" y="1540" width="3584" height="1012"/></clipPath><clipPath id="clip9"><rect x="4180" y="1540" width="3584" height="1012"/></clipPath><clipPath id="clip10"><rect x="4180" y="1540" width="3584" height="1012"/></clipPath><clipPath id="clip11"><rect x="4180" y="1540" width="3584" height="1012"/></clipPath><clipPath id="clip12"><rect x="4180" y="1540" width="3584" height="1012"/></clipPath><clipPath id="clip13"><rect x="4180" y="1540" width="3584" height="1012"/></clipPath><clipPath id="clip14"><rect x="4180" y="1540" width="3584" height="1012"/></clipPath><clipPath id="clip15"><rect x="4180" y="1540" width="3584" height="1012"/></clipPath><clipPath id="clip16"><rect x="4180" y="1540" width="3584" height="1012"/></clipPath><clipPath id="clip17"><rect x="4180" y="1540" width="3584" height="1012"/></clipPath><clipPath id="clip18"><rect x="4180" y="1540" width="3584" height="1012"/></clipPath><clipPath id="clip19"><rect x="4180" y="1540" width="3584" height="1012"/></clipPath><clipPath id="clip20"><rect x="4180" y="1540" width="3584" height="1012"/></clipPath><clipPath id="clip21"><rect x="4180" y="1540" width="3584" height="1012"/></clipPath><clipPath id="clip22"><rect x="4180" y="1540" width="3584" height="1012"/></clipPath><clipPath id="clip23"><rect x="4180" y="1540" width="3584" height="1012"/></clipPath><clipPath id="clip24"><rect x="4180" y="1540" width="3584" height="1012"/></clipPath><clipPath id="clip25"><rect x="4180" y="1540" width="3584" height="1012"/></clipPath><clipPath id="clip26"><rect x="4180" y="1540" width="3584" height="1012"/></clipPath><clipPath id="clip27"><rect x="4180" y="1540" width="3584" height="1012"/></clipPath><clipPath id="clip28"><rect x="4180" y="1540" width="3584" height="1012"/></clipPath><clipPath id="clip29"><rect x="4180" y="1540" width="3584" height="1012"/></clipPath><clipPath id="clip30"><rect x="4180" y="1540" width="3584" height="1012"/></clipPath><clipPath id="clip31"><rect x="4180" y="1540" width="3584" height="1012"/></clipPath><clipPath id="clip32"><rect x="4180" y="1540" width="3584" height="1012"/></clipPath><clipPath id="clip33"><rect x="4180" y="1540" width="3584" height="1012"/></clipPath><clipPath id="clip34"><rect x="4180" y="1540" width="3584" height="1012"/></clipPath><clipPath id="clip35"><rect x="4180" y="1540" width="3584" height="1012"/></clipPath><clipPath id="clip36"><rect x="4180" y="1540" width="3584" height="1012"/></clipPath><clipPath id="clip37"><rect x="4180" y="1540" width="3584" height="1012"/></clipPath><clipPath id="clip38"><rect x="4180" y="1540" width="3584" height="1012"/></clipPath><clipPath id="clip39"><rect x="4180" y="1540" width="3584" height="1012"/></clipPath><clipPath id="clip40"><rect x="4180" y="1540" width="3584" height="1012"/></clipPath><clipPath id="clip41"><rect x="4180" y="1540" width="3584" height="1012"/></clipPath><clipPath id="clip42"><rect x="4180" y="1540" width="3584" height="1012"/></clipPath><clipPath id="clip43"><rect x="4180" y="1540" width="3584" height="1012"/></clipPath><clipPath id="clip44"><rect x="4180" y="1540" width="3584" height="1012"/></clipPath><clipPath id="clip45"><rect x="4180" y="1540" width="3584" height="1012"/></clipPath><clipPath id="clip46"><rect x="4180" y="1540" width="3584" height="1012"/></clipPath><clipPath id="clip47"><rect x="4180" y="1540" width="3584" height="1012"/></clipPath><clipPath id="clip48"><rect x="4180" y="1540" width="3584" height="1012"/></clipPath><clipPath id="clip49"><rect x="4180" y="1540" width="3584" height="1012"/></clipPath><clipPath id="clip50"><rect x="4180" y="1540" width="3584" height="1012"/></clipPath><clipPath id="clip51"><rect x="4180" y="1540" width="3584" height="1012"/></clipPath><clipPath id="clip52"><rect x="4180" y="1540" width="3584" height="1012"/></clipPath><clipPath id="clip53"><rect x="4180" y="1540" width="3584" height="1012"/></clipPath><clipPath id="clip54"><rect x="4180" y="1540" width="3584" height="1012"/></clipPath><clipPath id="clip55"><rect x="4180" y="1540" width="3584" height="1012"/></clipPath><clipPath id="clip56"><rect x="4180" y="1540" width="3584" height="1012"/></clipPath><clipPath id="clip57"><rect x="4180" y="1540" width="3584" height="1012"/></clipPath><clipPath id="clip58"><rect x="4180" y="1540" width="3584" height="1012"/></clipPath><clipPath id="clip59"><rect x="4180" y="1540" width="3584" height="1012"/></clipPath><clipPath id="clip60"><rect x="4180" y="1540" width="3584" height="1012"/></clipPath><clipPath id="clip61"><rect x="4180" y="1540" width="3584" height="1012"/></clipPath></defs><g clip-path="url(#clip0)" transform="translate(-4175 -1535)"><rect x="4180" y="1540" width="3584" height="1013" fill="#FFFFFF" fill-opacity="1"/><g clip-path="url(#clip1)"><path d="M4287.5 2346.58 7687.5 2346.58M4287.5 2223.57 7687.5 2223.57M4287.5 2101.57 7687.5 2101.57M4287.5 1978.57 7687.5 1978.57M4287.5 1855.56 7687.5 1855.56M4287.5 1732.5 7687.5 1732.5" stroke="#D9D9D9" stroke-width="3.4375" stroke-linecap="butt" stroke-linejoin="round" stroke-miterlimit="10" stroke-opacity="1" fill="none" fill-rule="nonzero"/></g><g clip-path="url(#clip2)"><path d="M4333.14 2463.08 4344.14 2463.08 4344.14 2470 4333.14 2470ZM4367.14 2408.08 4378.14 2408.08 4378.14 2470 4367.14 2470ZM4401.14 2426.08 4412.15 2426.08 4412.15 2470 4401.14 2470ZM4435.15 2402.08 4446.15 2402.08 4446.15 2470 4435.15 2470ZM4469.15 2420.08 4480.15 2420.08 4480.15 2470 4469.15 2470ZM4503.15 2445.08 4514.15 2445.08 4514.15 2470 4503.15 2470ZM4537.15 2371.08 4548.15 2371.08 4548.15 2470 4537.15 2470ZM4571.15 2383.08 4582.15 2383.08 4582.15 2470 4571.15 2470ZM4605.15 2457.08 4616.15 2457.08 4616.15 2470 4605.15 2470ZM4639.15 2414.08 4650.15 2414.08 4650.15 2470 4639.15 2470ZM4673.15 2451.08 4684.15 2451.08 4684.15 2470 4673.15 2470ZM4707.15 2365.08 4718.15 2365.08 4718.15 2470 4707.15 2470ZM4741.16 2396.08 4752.16 2396.08 4752.16 2470 4741.16 2470ZM4775.16 2353.08 4786.16 2353.08 4786.16 2470 4775.16 2470ZM4809.16 2347.08 4820.16 2347.08 4820.16 2470 4809.16 2470ZM4843.16 2377.08 4854.16 2377.08 4854.16 2470 4843.16 2470ZM4877.16 2322.08 4888.16 2322.08 4888.16 2470 4877.16 2470ZM4911.16 2439.08 4922.16 2439.08 4922.16 2470 4911.16 2470ZM4945.16 2310.08 4956.16 2310.08 4956.16 2470 4945.16 2470ZM4979.16 2359.08 4990.16 2359.08 4990.16 2470 4979.16 2470ZM5013.16 2328.08 5024.17 2328.08 5024.17 2470 5013.16 2470ZM5047.17 2433.08 5058.17 2433.08 5058.17 2470 5047.17 2470ZM5081.17 2279.07 5092.17 2279.07 5092.17 2470 5081.17 2470ZM5115.17 2341.08 5126.17 2341.08 5126.17 2470 5115.17 2470ZM5149.17 2273.07 5160.17 2273.07 5160.17 2470 5149.17 2470ZM5183.17 2291.08 5194.17 2291.08 5194.17 2470 5183.17 2470ZM5217.17 2390.08 5228.17 2390.08 5228.17 2470 5217.17 2470ZM5251.17 2255.07 5262.17 2255.07 5262.17 2470 5251.17 2470ZM5285.17 2298.08 5296.17 2298.08 5296.17 2470 5285.17 2470ZM5319.17 2242.07 5330.17 2242.07 5330.17 2470 5319.17 2470ZM5353.18 2267.07 5364.18 2267.07 5364.18 2470 5353.18 2470ZM5387.18 2218.07 5398.18 2218.07 5398.18 2470 5387.18 2470ZM5421.18 2236.07 5432.18 2236.07 5432.18 2470 5421.18 2470ZM5455.18 2205.07 5466.18 2205.07 5466.18 2470 5455.18 2470ZM5489.18 2248.07 5500.18 2248.07 5500.18 2470 5489.18 2470ZM5523.18 2199.07 5534.18 2199.07 5534.18 2470 5523.18 2470ZM5557.18 2212.07 5568.18 2212.07 5568.18 2470 5557.18 2470ZM5591.18 2261.07 5602.18 2261.07 5602.18 2470 5591.18 2470ZM5625.18 2230.07 5636.19 2230.07 5636.19 2470 5625.18 2470ZM5659.19 2175.07 5670.19 2175.07 5670.19 2470 5659.19 2470ZM5693.19 2304.08 5704.19 2304.08 5704.19 2470 5693.19 2470ZM5727.19 2181.07 5738.19 2181.07 5738.19 2470 5727.19 2470ZM5761.19 2285.07 5772.19 2285.07 5772.19 2470 5761.19 2470ZM5795.19 2187.07 5806.19 2187.07 5806.19 2470 5795.19 2470ZM5829.19 2334.08 5840.19 2334.08 5840.19 2470 5829.19 2470ZM5863.19 2193.07 5874.19 2193.07 5874.19 2470 5863.19 2470ZM5897.19 2163.07 5908.19 2163.07 5908.19 2470 5897.19 2470ZM5931.19 2138.07 5942.19 2138.07 5942.19 2470 5931.19 2470ZM5965.2 2316.08 5976.2 2316.08 5976.2 2470 5965.2 2470ZM5999.2 2169.07 6010.2 2169.07 6010.2 2470 5999.2 2470ZM6033.2 2224.07 6044.2 2224.07 6044.2 2470 6033.2 2470ZM6067.2 2101.07 6078.2 2101.07 6078.2 2470 6067.2 2470ZM6101.2 2113.07 6112.2 2113.07 6112.2 2470 6101.2 2470ZM6135.2 2132.07 6146.2 2132.07 6146.2 2470 6135.2 2470ZM6169.2 2077.07 6180.2 2077.07 6180.2 2470 6169.2 2470ZM6203.2 2144.07 6214.2 2144.07 6214.2 2470 6203.2 2470ZM6237.2 2107.07 6248.21 2107.07 6248.21 2470 6237.2 2470ZM6271.21 2070.07 6282.21 2070.07 6282.21 2470 6271.21 2470ZM6305.21 2064.07 6316.21 2064.07 6316.21 2470 6305.21 2470ZM6339.21 2126.07 6350.21 2126.07 6350.21 2470 6339.21 2470ZM6373.21 2156.07 6384.21 2156.07 6384.21 2470 6373.21 2470ZM6407.21 2040.07 6418.21 2040.07 6418.21 2470 6407.21 2470ZM6441.21 2027.07 6452.21 2027.07 6452.21 2470 6441.21 2470ZM6475.21 2120.07 6486.21 2120.07 6486.21 2470 6475.21 2470ZM6509.21 2150.07 6520.21 2150.07 6520.21 2470 6509.21 2470ZM6543.21 2046.07 6554.21 2046.07 6554.21 2470 6543.21 2470ZM6577.22 2089.07 6588.22 2089.07 6588.22 2470 6577.22 2470ZM6611.22 2058.07 6622.22 2058.07 6622.22 2470 6611.22 2470ZM6645.22 2095.07 6656.22 2095.07 6656.22 2470 6645.22 2470ZM6679.22 2009.07 6690.22 2009.07 6690.22 2470 6679.22 2470ZM6713.22 2021.07 6724.22 2021.07 6724.22 2470 6713.22 2470ZM6747.22 1997.07 6758.22 1997.07 6758.22 2470 6747.22 2470ZM6781.22 1972.06 6792.22 1972.06 6792.22 2470 6781.22 2470ZM6815.22 2015.07 6826.22 2015.07 6826.22 2470 6815.22 2470ZM6849.22 2052.07 6860.23 2052.07 6860.23 2470 6849.22 2470ZM6883.23 1978.06 6894.23 1978.06 6894.23 2470 6883.23 2470ZM6917.23 1942.06 6928.23 1942.06 6928.23 2470 6917.23 2470ZM6951.23 2034.07 6962.23 2034.07 6962.23 2470 6951.23 2470ZM6985.23 1966.06 6996.23 1966.06 6996.23 2470 6985.23 2470ZM7019.23 1935.06 7030.23 1935.06 7030.23 2470 7019.23 2470ZM7053.23 1929.06 7064.23 1929.06 7064.23 2470 7053.23 2470ZM7087.23 1948.06 7098.23 1948.06 7098.23 2470 7087.23 2470ZM7121.23 2003.07 7132.23 2003.07 7132.23 2470 7121.23 2470ZM7155.23 1905.06 7166.24 1905.06 7166.24 2470 7155.23 2470ZM7189.24 1899.06 7200.24 1899.06 7200.24 2470 7189.24 2470ZM7223.24 1892.06 7234.24 1892.06 7234.24 2470 7223.24 2470ZM7257.24 1954.06 7268.24 1954.06 7268.24 2470 7257.24 2470ZM7291.24 1911.06 7302.24 1911.06 7302.24 2470 7291.24 2470ZM7325.24 1886.06 7336.24 1886.06 7336.24 2470 7325.24 2470ZM7359.24 1917.06 7370.24 1917.06 7370.24 2470 7359.24 2470ZM7393.24 1991.07 7404.24 1991.07 7404.24 2470 7393.24 2470ZM7427.24 1960.06 7438.24 1960.06 7438.24 2470 7427.24 2470ZM7461.24 1985.07 7472.25 1985.07 7472.25 2470 7461.24 2470ZM7495.25 2083.07 7506.25 2083.07 7506.25 2470 7495.25 2470ZM7529.25 1923.06 7540.25 1923.06 7540.25 2470 7529.25 2470ZM7563.25 1880.06 7574.25 1880.06 7574.25 2470 7563.25 2470ZM7597.25 1874.06 7608.25 1874.06 7608.25 2470 7597.25 2470ZM7631.25 1868.06 7642.25 1868.06 7642.25 2470 7631.25 2470ZM7665.25 1862.06 7676.25 1862.06 7676.25 2470 7665.25 2470Z" fill="#4472C4" fill-rule="nonzero" fill-opacity="1"/></g><g clip-path="url(#clip3)"><path d="M4287.5 2469.5 7687.5 2469.5" stroke="#D9D9D9" stroke-width="3.4375" stroke-linecap="butt" stroke-linejoin="round" stroke-miterlimit="10" stroke-opacity="1" fill="none" fill-rule="evenodd"/></g><g clip-path="url(#clip4)"><text fill="#595959" fill-opacity="1" font-family="Calibri,Calibri_MSFontService,sans-serif" font-style="normal" font-variant="normal" font-weight="400" font-stretch="normal" font-size="41" text-anchor="start" direction="ltr" writing-mode="lr-tb" unicode-bidi="normal" text-decoration="none" transform="matrix(1 0 0 1 4228.67 2480)">0</text></g><g clip-path="url(#clip5)"><text fill="#595959" fill-opacity="1" font-family="Calibri,Calibri_MSFontService,sans-serif" font-style="normal" font-variant="normal" font-weight="400" font-stretch="normal" font-size="41" text-anchor="start" direction="ltr" writing-mode="lr-tb" unicode-bidi="normal" text-decoration="none" transform="matrix(1 0 0 1 4207.77 2357)">20</text></g><g clip-path="url(#clip6)"><text fill="#595959" fill-opacity="1" font-family="Calibri,Calibri_MSFontService,sans-serif" font-style="normal" font-variant="normal" font-weight="400" font-stretch="normal" font-size="41" text-anchor="start" direction="ltr" writing-mode="lr-tb" unicode-bidi="normal" text-decoration="none" transform="matrix(1 0 0 1 4207.77 2234)">40</text></g><g clip-path="url(#clip7)"><text fill="#595959" fill-opacity="1" font-family="Calibri,Calibri_MSFontService,sans-serif" font-style="normal" font-variant="normal" font-weight="400" font-stretch="normal" font-size="41" text-anchor="start" direction="ltr" writing-mode="lr-tb" unicode-bidi="normal" text-decoration="none" transform="matrix(1 0 0 1 4207.77 2111)">60</text></g><g clip-path="url(#clip8)"><text fill="#595959" fill-opacity="1" font-family="Calibri,Calibri_MSFontService,sans-serif" font-style="normal" font-variant="normal" font-weight="400" font-stretch="normal" font-size="41" text-anchor="start" direction="ltr" writing-mode="lr-tb" unicode-bidi="normal" text-decoration="none" transform="matrix(1 0 0 1 4207.77 1989)">80</text></g><g clip-path="url(#clip9)"><text fill="#595959" fill-opacity="1" font-family="Calibri,Calibri_MSFontService,sans-serif" font-style="normal" font-variant="normal" font-weight="400" font-stretch="normal" font-size="41" text-anchor="start" direction="ltr" writing-mode="lr-tb" unicode-bidi="normal" text-decoration="none" transform="matrix(1 0 0 1 4186.88 1866)">100</text></g><g clip-path="url(#clip10)"><text fill="#595959" fill-opacity="1" font-family="Calibri,Calibri_MSFontService,sans-serif" font-style="normal" font-variant="normal" font-weight="400" font-stretch="normal" font-size="41" text-anchor="start" direction="ltr" writing-mode="lr-tb" unicode-bidi="normal" text-decoration="none" transform="matrix(1 0 0 1 4186.88 1743)">120</text></g><g clip-path="url(#clip11)"><text fill="#595959" fill-opacity="1" font-family="Calibri,Calibri_MSFontService,sans-serif" font-style="normal" font-variant="normal" font-weight="400" font-stretch="normal" font-size="41" text-anchor="start" direction="ltr" writing-mode="lr-tb" unicode-bidi="normal" text-decoration="none" transform="matrix(1 0 0 1 4294.39 2535)">1</text></g><g clip-path="url(#clip12)"><text fill="#595959" fill-opacity="1" font-family="Calibri,Calibri_MSFontService,sans-serif" font-style="normal" font-variant="normal" font-weight="400" font-stretch="normal" font-size="41" text-anchor="start" direction="ltr" writing-mode="lr-tb" unicode-bidi="normal" text-decoration="none" transform="matrix(1 0 0 1 4362.39 2535)">3</text></g><g clip-path="url(#clip13)"><text fill="#595959" fill-opacity="1" font-family="Calibri,Calibri_MSFontService,sans-serif" font-style="normal" font-variant="normal" font-weight="400" font-stretch="normal" font-size="41" text-anchor="start" direction="ltr" writing-mode="lr-tb" unicode-bidi="normal" text-decoration="none" transform="matrix(1 0 0 1 4430.38 2535)">5</text></g><g clip-path="url(#clip14)"><text fill="#595959" fill-opacity="1" font-family="Calibri,Calibri_MSFontService,sans-serif" font-style="normal" font-variant="normal" font-weight="400" font-stretch="normal" font-size="41" text-anchor="start" direction="ltr" writing-mode="lr-tb" unicode-bidi="normal" text-decoration="none" transform="matrix(1 0 0 1 4498.38 2535)">7</text></g><g clip-path="url(#clip15)"><text fill="#595959" fill-opacity="1" font-family="Calibri,Calibri_MSFontService,sans-serif" font-style="normal" font-variant="normal" font-weight="400" font-stretch="normal" font-size="41" text-anchor="start" direction="ltr" writing-mode="lr-tb" unicode-bidi="normal" text-decoration="none" transform="matrix(1 0 0 1 4566.37 2535)">9</text></g><g clip-path="url(#clip16)"><text fill="#595959" fill-opacity="1" font-family="Calibri,Calibri_MSFontService,sans-serif" font-style="normal" font-variant="normal" font-weight="400" font-stretch="normal" font-size="41" text-anchor="start" direction="ltr" writing-mode="lr-tb" unicode-bidi="normal" text-decoration="none" transform="matrix(1 0 0 1 4623.92 2535)">11</text></g><g clip-path="url(#clip17)"><text fill="#595959" fill-opacity="1" font-family="Calibri,Calibri_MSFontService,sans-serif" font-style="normal" font-variant="normal" font-weight="400" font-stretch="normal" font-size="41" text-anchor="start" direction="ltr" writing-mode="lr-tb" unicode-bidi="normal" text-decoration="none" transform="matrix(1 0 0 1 4691.91 2535)">13</text></g><g clip-path="url(#clip18)"><text fill="#595959" fill-opacity="1" font-family="Calibri,Calibri_MSFontService,sans-serif" font-style="normal" font-variant="normal" font-weight="400" font-stretch="normal" font-size="41" text-anchor="start" direction="ltr" writing-mode="lr-tb" unicode-bidi="normal" text-decoration="none" transform="matrix(1 0 0 1 4759.91 2535)">15</text></g><g clip-path="url(#clip19)"><text fill="#595959" fill-opacity="1" font-family="Calibri,Calibri_MSFontService,sans-serif" font-style="normal" font-variant="normal" font-weight="400" font-stretch="normal" font-size="41" text-anchor="start" direction="ltr" writing-mode="lr-tb" unicode-bidi="normal" text-decoration="none" transform="matrix(1 0 0 1 4827.91 2535)">17</text></g><g clip-path="url(#clip20)"><text fill="#595959" fill-opacity="1" font-family="Calibri,Calibri_MSFontService,sans-serif" font-style="normal" font-variant="normal" font-weight="400" font-stretch="normal" font-size="41" text-anchor="start" direction="ltr" writing-mode="lr-tb" unicode-bidi="normal" text-decoration="none" transform="matrix(1 0 0 1 4895.9 2535)">19</text></g><g clip-path="url(#clip21)"><text fill="#595959" fill-opacity="1" font-family="Calibri,Calibri_MSFontService,sans-serif" font-style="normal" font-variant="normal" font-weight="400" font-stretch="normal" font-size="41" text-anchor="start" direction="ltr" writing-mode="lr-tb" unicode-bidi="normal" text-decoration="none" transform="matrix(1 0 0 1 4963.9 2535)">21</text></g><g clip-path="url(#clip22)"><text fill="#595959" fill-opacity="1" font-family="Calibri,Calibri_MSFontService,sans-serif" font-style="normal" font-variant="normal" font-weight="400" font-stretch="normal" font-size="41" text-anchor="start" direction="ltr" writing-mode="lr-tb" unicode-bidi="normal" text-decoration="none" transform="matrix(1 0 0 1 5031.89 2535)">23</text></g><g clip-path="url(#clip23)"><text fill="#595959" fill-opacity="1" font-family="Calibri,Calibri_MSFontService,sans-serif" font-style="normal" font-variant="normal" font-weight="400" font-stretch="normal" font-size="41" text-anchor="start" direction="ltr" writing-mode="lr-tb" unicode-bidi="normal" text-decoration="none" transform="matrix(1 0 0 1 5099.89 2535)">25</text></g><g clip-path="url(#clip24)"><text fill="#595959" fill-opacity="1" font-family="Calibri,Calibri_MSFontService,sans-serif" font-style="normal" font-variant="normal" font-weight="400" font-stretch="normal" font-size="41" text-anchor="start" direction="ltr" writing-mode="lr-tb" unicode-bidi="normal" text-decoration="none" transform="matrix(1 0 0 1 5167.88 2535)">27</text></g><g clip-path="url(#clip25)"><text fill="#595959" fill-opacity="1" font-family="Calibri,Calibri_MSFontService,sans-serif" font-style="normal" font-variant="normal" font-weight="400" font-stretch="normal" font-size="41" text-anchor="start" direction="ltr" writing-mode="lr-tb" unicode-bidi="normal" text-decoration="none" transform="matrix(1 0 0 1 5235.88 2535)">29</text></g><g clip-path="url(#clip26)"><text fill="#595959" fill-opacity="1" font-family="Calibri,Calibri_MSFontService,sans-serif" font-style="normal" font-variant="normal" font-weight="400" font-stretch="normal" font-size="41" text-anchor="start" direction="ltr" writing-mode="lr-tb" unicode-bidi="normal" text-decoration="none" transform="matrix(1 0 0 1 5303.88 2535)">31</text></g><g clip-path="url(#clip27)"><text fill="#595959" fill-opacity="1" font-family="Calibri,Calibri_MSFontService,sans-serif" font-style="normal" font-variant="normal" font-weight="400" font-stretch="normal" font-size="41" text-anchor="start" direction="ltr" writing-mode="lr-tb" unicode-bidi="normal" text-decoration="none" transform="matrix(1 0 0 1 5371.87 2535)">33</text></g><g clip-path="url(#clip28)"><text fill="#595959" fill-opacity="1" font-family="Calibri,Calibri_MSFontService,sans-serif" font-style="normal" font-variant="normal" font-weight="400" font-stretch="normal" font-size="41" text-anchor="start" direction="ltr" writing-mode="lr-tb" unicode-bidi="normal" text-decoration="none" transform="matrix(1 0 0 1 5439.87 2535)">35</text></g><g clip-path="url(#clip29)"><text fill="#595959" fill-opacity="1" font-family="Calibri,Calibri_MSFontService,sans-serif" font-style="normal" font-variant="normal" font-weight="400" font-stretch="normal" font-size="41" text-anchor="start" direction="ltr" writing-mode="lr-tb" unicode-bidi="normal" text-decoration="none" transform="matrix(1 0 0 1 5507.86 2535)">37</text></g><g clip-path="url(#clip30)"><text fill="#595959" fill-opacity="1" font-family="Calibri,Calibri_MSFontService,sans-serif" font-style="normal" font-variant="normal" font-weight="400" font-stretch="normal" font-size="41" text-anchor="start" direction="ltr" writing-mode="lr-tb" unicode-bidi="normal" text-decoration="none" transform="matrix(1 0 0 1 5575.86 2535)">39</text></g><g clip-path="url(#clip31)"><text fill="#595959" fill-opacity="1" font-family="Calibri,Calibri_MSFontService,sans-serif" font-style="normal" font-variant="normal" font-weight="400" font-stretch="normal" font-size="41" text-anchor="start" direction="ltr" writing-mode="lr-tb" unicode-bidi="normal" text-decoration="none" transform="matrix(1 0 0 1 5643.85 2535)">41</text></g><g clip-path="url(#clip32)"><text fill="#595959" fill-opacity="1" font-family="Calibri,Calibri_MSFontService,sans-serif" font-style="normal" font-variant="normal" font-weight="400" font-stretch="normal" font-size="41" text-anchor="start" direction="ltr" writing-mode="lr-tb" unicode-bidi="normal" text-decoration="none" transform="matrix(1 0 0 1 5711.85 2535)">43</text></g><g clip-path="url(#clip33)"><text fill="#595959" fill-opacity="1" font-family="Calibri,Calibri_MSFontService,sans-serif" font-style="normal" font-variant="normal" font-weight="400" font-stretch="normal" font-size="41" text-anchor="start" direction="ltr" writing-mode="lr-tb" unicode-bidi="normal" text-decoration="none" transform="matrix(1 0 0 1 5779.85 2535)">45</text></g><g clip-path="url(#clip34)"><text fill="#595959" fill-opacity="1" font-family="Calibri,Calibri_MSFontService,sans-serif" font-style="normal" font-variant="normal" font-weight="400" font-stretch="normal" font-size="41" text-anchor="start" direction="ltr" writing-mode="lr-tb" unicode-bidi="normal" text-decoration="none" transform="matrix(1 0 0 1 5847.84 2535)">47</text></g><g clip-path="url(#clip35)"><text fill="#595959" fill-opacity="1" font-family="Calibri,Calibri_MSFontService,sans-serif" font-style="normal" font-variant="normal" font-weight="400" font-stretch="normal" font-size="41" text-anchor="start" direction="ltr" writing-mode="lr-tb" unicode-bidi="normal" text-decoration="none" transform="matrix(1 0 0 1 5915.84 2535)">49</text></g><g clip-path="url(#clip36)"><text fill="#595959" fill-opacity="1" font-family="Calibri,Calibri_MSFontService,sans-serif" font-style="normal" font-variant="normal" font-weight="400" font-stretch="normal" font-size="41" text-anchor="start" direction="ltr" writing-mode="lr-tb" unicode-bidi="normal" text-decoration="none" transform="matrix(1 0 0 1 5983.83 2535)">51</text></g><g clip-path="url(#clip37)"><text fill="#595959" fill-opacity="1" font-family="Calibri,Calibri_MSFontService,sans-serif" font-style="normal" font-variant="normal" font-weight="400" font-stretch="normal" font-size="41" text-anchor="start" direction="ltr" writing-mode="lr-tb" unicode-bidi="normal" text-decoration="none" transform="matrix(1 0 0 1 6051.83 2535)">53</text></g><g clip-path="url(#clip38)"><text fill="#595959" fill-opacity="1" font-family="Calibri,Calibri_MSFontService,sans-serif" font-style="normal" font-variant="normal" font-weight="400" font-stretch="normal" font-size="41" text-anchor="start" direction="ltr" writing-mode="lr-tb" unicode-bidi="normal" text-decoration="none" transform="matrix(1 0 0 1 6119.82 2535)">55</text></g><g clip-path="url(#clip39)"><text fill="#595959" fill-opacity="1" font-family="Calibri,Calibri_MSFontService,sans-serif" font-style="normal" font-variant="normal" font-weight="400" font-stretch="normal" font-size="41" text-anchor="start" direction="ltr" writing-mode="lr-tb" unicode-bidi="normal" text-decoration="none" transform="matrix(1 0 0 1 6187.82 2535)">57</text></g><g clip-path="url(#clip40)"><text fill="#595959" fill-opacity="1" font-family="Calibri,Calibri_MSFontService,sans-serif" font-style="normal" font-variant="normal" font-weight="400" font-stretch="normal" font-size="41" text-anchor="start" direction="ltr" writing-mode="lr-tb" unicode-bidi="normal" text-decoration="none" transform="matrix(1 0 0 1 6255.81 2535)">59</text></g><g clip-path="url(#clip41)"><text fill="#595959" fill-opacity="1" font-family="Calibri,Calibri_MSFontService,sans-serif" font-style="normal" font-variant="normal" font-weight="400" font-stretch="normal" font-size="41" text-anchor="start" direction="ltr" writing-mode="lr-tb" unicode-bidi="normal" text-decoration="none" transform="matrix(1 0 0 1 6323.81 2535)">61</text></g><g clip-path="url(#clip42)"><text fill="#595959" fill-opacity="1" font-family="Calibri,Calibri_MSFontService,sans-serif" font-style="normal" font-variant="normal" font-weight="400" font-stretch="normal" font-size="41" text-anchor="start" direction="ltr" writing-mode="lr-tb" unicode-bidi="normal" text-decoration="none" transform="matrix(1 0 0 1 6391.81 2535)">63</text></g><g clip-path="url(#clip43)"><text fill="#595959" fill-opacity="1" font-family="Calibri,Calibri_MSFontService,sans-serif" font-style="normal" font-variant="normal" font-weight="400" font-stretch="normal" font-size="41" text-anchor="start" direction="ltr" writing-mode="lr-tb" unicode-bidi="normal" text-decoration="none" transform="matrix(1 0 0 1 6459.8 2535)">65</text></g><g clip-path="url(#clip44)"><text fill="#595959" fill-opacity="1" font-family="Calibri,Calibri_MSFontService,sans-serif" font-style="normal" font-variant="normal" font-weight="400" font-stretch="normal" font-size="41" text-anchor="start" direction="ltr" writing-mode="lr-tb" unicode-bidi="normal" text-decoration="none" transform="matrix(1 0 0 1 6527.8 2535)">67</text></g><g clip-path="url(#clip45)"><text fill="#595959" fill-opacity="1" font-family="Calibri,Calibri_MSFontService,sans-serif" font-style="normal" font-variant="normal" font-weight="400" font-stretch="normal" font-size="41" text-anchor="start" direction="ltr" writing-mode="lr-tb" unicode-bidi="normal" text-decoration="none" transform="matrix(1 0 0 1 6595.79 2535)">69</text></g><g clip-path="url(#clip46)"><text fill="#595959" fill-opacity="1" font-family="Calibri,Calibri_MSFontService,sans-serif" font-style="normal" font-variant="normal" font-weight="400" font-stretch="normal" font-size="41" text-anchor="start" direction="ltr" writing-mode="lr-tb" unicode-bidi="normal" text-decoration="none" transform="matrix(1 0 0 1 6663.79 2535)">71</text></g><g clip-path="url(#clip47)"><text fill="#595959" fill-opacity="1" font-family="Calibri,Calibri_MSFontService,sans-serif" font-style="normal" font-variant="normal" font-weight="400" font-stretch="normal" font-size="41" text-anchor="start" direction="ltr" writing-mode="lr-tb" unicode-bidi="normal" text-decoration="none" transform="matrix(1 0 0 1 6731.78 2535)">73</text></g><g clip-path="url(#clip48)"><text fill="#595959" fill-opacity="1" font-family="Calibri,Calibri_MSFontService,sans-serif" font-style="normal" font-variant="normal" font-weight="400" font-stretch="normal" font-size="41" text-anchor="start" direction="ltr" writing-mode="lr-tb" unicode-bidi="normal" text-decoration="none" transform="matrix(1 0 0 1 6799.78 2535)">75</text></g><g clip-path="url(#clip49)"><text fill="#595959" fill-opacity="1" font-family="Calibri,Calibri_MSFontService,sans-serif" font-style="normal" font-variant="normal" font-weight="400" font-stretch="normal" font-size="41" text-anchor="start" direction="ltr" writing-mode="lr-tb" unicode-bidi="normal" text-decoration="none" transform="matrix(1 0 0 1 6867.78 2535)">77</text></g><g clip-path="url(#clip50)"><text fill="#595959" fill-opacity="1" font-family="Calibri,Calibri_MSFontService,sans-serif" font-style="normal" font-variant="normal" font-weight="400" font-stretch="normal" font-size="41" text-anchor="start" direction="ltr" writing-mode="lr-tb" unicode-bidi="normal" text-decoration="none" transform="matrix(1 0 0 1 6935.77 2535)">79</text></g><g clip-path="url(#clip51)"><text fill="#595959" fill-opacity="1" font-family="Calibri,Calibri_MSFontService,sans-serif" font-style="normal" font-variant="normal" font-weight="400" font-stretch="normal" font-size="41" text-anchor="start" direction="ltr" writing-mode="lr-tb" unicode-bidi="normal" text-decoration="none" transform="matrix(1 0 0 1 7003.77 2535)">81</text></g><g clip-path="url(#clip52)"><text fill="#595959" fill-opacity="1" font-family="Calibri,Calibri_MSFontService,sans-serif" font-style="normal" font-variant="normal" font-weight="400" font-stretch="normal" font-size="41" text-anchor="start" direction="ltr" writing-mode="lr-tb" unicode-bidi="normal" text-decoration="none" transform="matrix(1 0 0 1 7071.76 2535)">83</text></g><g clip-path="url(#clip53)"><text fill="#595959" fill-opacity="1" font-family="Calibri,Calibri_MSFontService,sans-serif" font-style="normal" font-variant="normal" font-weight="400" font-stretch="normal" font-size="41" text-anchor="start" direction="ltr" writing-mode="lr-tb" unicode-bidi="normal" text-decoration="none" transform="matrix(1 0 0 1 7139.76 2535)">85</text></g><g clip-path="url(#clip54)"><text fill="#595959" fill-opacity="1" font-family="Calibri,Calibri_MSFontService,sans-serif" font-style="normal" font-variant="normal" font-weight="400" font-stretch="normal" font-size="41" text-anchor="start" direction="ltr" writing-mode="lr-tb" unicode-bidi="normal" text-decoration="none" transform="matrix(1 0 0 1 7207.75 2535)">87</text></g><g clip-path="url(#clip55)"><text fill="#595959" fill-opacity="1" font-family="Calibri,Calibri_MSFontService,sans-serif" font-style="normal" font-variant="normal" font-weight="400" font-stretch="normal" font-size="41" text-anchor="start" direction="ltr" writing-mode="lr-tb" unicode-bidi="normal" text-decoration="none" transform="matrix(1 0 0 1 7275.75 2535)">89</text></g><g clip-path="url(#clip56)"><text fill="#595959" fill-opacity="1" font-family="Calibri,Calibri_MSFontService,sans-serif" font-style="normal" font-variant="normal" font-weight="400" font-stretch="normal" font-size="41" text-anchor="start" direction="ltr" writing-mode="lr-tb" unicode-bidi="normal" text-decoration="none" transform="matrix(1 0 0 1 7343.75 2535)">91</text></g><g clip-path="url(#clip57)"><text fill="#595959" fill-opacity="1" font-family="Calibri,Calibri_MSFontService,sans-serif" font-style="normal" font-variant="normal" font-weight="400" font-stretch="normal" font-size="41" text-anchor="start" direction="ltr" writing-mode="lr-tb" unicode-bidi="normal" text-decoration="none" transform="matrix(1 0 0 1 7411.74 2535)">93</text></g><g clip-path="url(#clip58)"><text fill="#595959" fill-opacity="1" font-family="Calibri,Calibri_MSFontService,sans-serif" font-style="normal" font-variant="normal" font-weight="400" font-stretch="normal" font-size="41" text-anchor="start" direction="ltr" writing-mode="lr-tb" unicode-bidi="normal" text-decoration="none" transform="matrix(1 0 0 1 7479.74 2535)">95</text></g><g clip-path="url(#clip59)"><text fill="#595959" fill-opacity="1" font-family="Calibri,Calibri_MSFontService,sans-serif" font-style="normal" font-variant="normal" font-weight="400" font-stretch="normal" font-size="41" text-anchor="start" direction="ltr" writing-mode="lr-tb" unicode-bidi="normal" text-decoration="none" transform="matrix(1 0 0 1 7547.73 2535)">97</text></g><g clip-path="url(#clip60)"><text fill="#595959" fill-opacity="1" font-family="Calibri,Calibri_MSFontService,sans-serif" font-style="normal" font-variant="normal" font-weight="400" font-stretch="normal" font-size="41" text-anchor="start" direction="ltr" writing-mode="lr-tb" unicode-bidi="normal" text-decoration="none" transform="matrix(1 0 0 1 7615.73 2535)">99</text></g><g clip-path="url(#clip61)"><text fill="#595959" fill-opacity="1" font-family="Calibri,Calibri_MSFontService,sans-serif" font-style="normal" font-variant="normal" font-weight="400" font-stretch="normal" font-size="64" text-anchor="start" direction="ltr" writing-mode="lr-tb" unicode-bidi="normal" text-decoration="none" transform="matrix(1 0 0 1 5704.91 1635)">Entrée presque triée</text></g><rect x="4180.5" y="1540.5" width="3584" height="1013" stroke="#D9D9D9" stroke-width="3.4375" stroke-linecap="butt" stroke-linejoin="round" stroke-miterlimit="10" stroke-opacity="1" fill="none"/></g></svg>