<svg width="3594" height="1022" xmlns="http://www.w3.org/2000/svg" xmlns:xlink="http://www.w3.org/1999/xlink" overflow="hidden"><defs><clipPath id="clip0"><rect x="343" y="1535" width="3594" height="1022"/></clipPath><clipPath id="clip1"><rect x="348" y="1540" width="3584" height="1012"/></clipPath><clipPath id="clip2"><rect x="456" y="1732" width="3403" height="740"/></clipPath><clipPath id="clip3"><rect x="348" y="1540" width="3584" height="1012"/></clipPath><clipPath id="clip4"><rect x="348" y="1540" width="3584" height="1012"/></clipPath><clipPath id="clip5"><rect x="348" y="1540" width="3584" height="1012"/></clipPath><clipPath id="clip6"><rect x="348" y="1540" width="3584" height="1012"/></clipPath><clipPath id="clip7"><rect x="348" y="1540" width="3584" height="1012"/></clipPath><clipPath id="clip8"><rect x="348" y="1540" width="3584" height="1012"/></clipPath><clipPath id="clip9"><rect x="348" y="1540" width="3584" height="1012"/></clipPath><clipPath id="clip10"><rect x="348" y="1540" width="3584" height="1012"/></clipPath><clipPath id="clip11"><rect x="348" y="1540" width="3584" height="1012"/></clipPath><clipPath id="clip12"><rect x="348" y="1540" width="3584" height="1012"/></clipPath><clipPath id="clip13"><rect x="348" y="1540" width="3584" height="1012"/></clipPath><clipPath id="clip14"><rect x="348" y="1540" width="3584" height="1012"/></clipPath><clipPath id="clip15"><rect x="348" y="1540" width="3584" height="1012"/></clipPath><clipPath id="clip16"><rect x="348" y="1540" width="3584" height="1012"/></clipPath><clipPath id="clip17"><rect x="348" y="1540" width="3584" height="1012"/></clipPath><clipPath id="clip18"><rect x="348" y="1540" width="3584" height="1012"/></clipPath><clipPath id="clip19"><rect x="348" y="1540" width="3584" height="1012"/></clipPath><clipPath id="clip20"><rect x="348" y="1540" width="3584" height="1012"/></clipPath><clipPath id="clip21"><rect x="348" y="1540" width="3584" height="1012"/></clipPath><clipPath id="clip22"><rect x="348" y="1540" width="3584" height="1012"/></clipPath><clipPath id="clip23"><rect x="348" y="1540" width="3584" height="1012"/></clipPath><clipPath id="clip24"><rect x="348" y="1540" width="3584" height="1012"/></clipPath><clipPath id="clip25"><rect x="348" y="1540" width="3584" height="1012"/></clipPath><clipPath id="clip26"><rect x="348" y="1540" width="3584" height="1012"/></clipPath><clipPath id="clip27"><rect x="348" y="1540" width="3584" height="1012"/></clipPath><clipPath id="clip28"><rect x="348" y="1540" width="3584" height="1012"/></clipPath><clipPath id="clip29"><rect x="348" y="1540" width="3584" height="1012"/></clipPath><clipPath id="clip30"><rect x="348" y="1540" width="3584" height="1012"/></clipPath><clipPath id="clip31"><rect x="348" y="1540" width="3584" height="1012"/></clipPath><clipPath id="clip32"><rect x="348" y="1540" width="3584" height="1012"/></clipPath><clipPath id="clip33"><rect x="348" y="1540" width="3584" height="1012"/></clipPath><clipPath id="clip34"><rect x="348" y="1540" width="3584" height="1012"/></clipPath><clipPath id="clip35"><rect x="348" y="1540" width="3584" height="1012"/></clipPath><clipPath id="clip36"><rect x="348" y="1540" width="3584" height="1012"/></clipPath><clipPath id="clip37"><rect x="348" y="1540" width="3584" height="1012"/></clipPath><clipPath id="clip38"><rect x="348" y="1540" width="3584" height="1012"/></clipPath><clipPath id="clip39"><rect x="348" y="1540" width="3584" height="1012"/></clipPath><clipPath id="clip40"><rect x="348" y="1540" width="3584" height="1012"/></clipPath><clipPath id="clip41"><rect x="348" y="1540" width="3584" height="1012"/></clipPath><clipPath id="clip42"><rect x="348" y="1540" width="3584" height="1012"/></clipPath><clipPath id="clip43"><rect x="348" y="1540" width="3584" height="1012"/></clipPath><clipPath id="clip44"><rect x="348" y="1540" width="3584" height="1012"/></clipPath><clipPath id="clip45"><rect x="348" y="1540" width="3584" height="1012"/></clipPath><clipPath id="clip46"><rect x="348" y="1540" width="3584" height="1012"/></clipPath><clipPath id="clip47"><rect x="348" y="1540" width="3584" height="1012"/></clipPath><clipPath id="clip48"><rect x="348" y="1540" width="3584" height="1012"/></clipPath><clipPath id="clip49"><rect x="348" y="1540" width="3584" height="1012"/></clipPath><clipPath id="clip50"><rect x="348" y="1540" width="3584" height="1012"/></clipPath><clipPath id="clip51"><rect x="348" y="1540" width="3584" height="1012"/></clipPath><clipPath id="clip52"><rect x="348" y="1540" width="3584" height="1012"/></clipPath><clipPath id="clip53"><rect x="348" y="1540" width="3584" height="1012"/></clipPath><clipPath id="clip54"><rect x="348" y="1540" width="3584" height="1012"/></clipPath><clipPath id="clip55"><rect x="348" y="1540" width="3584" height="1012"/></clipPath><clipPath id="clip56"><rect x="348" y="1540" width="3584" height="1012"/></clipPath><clipPath id="clip57"><rect x="348" y="1540" width="3584" height="1012"/></clipPath><clipPath id="clip58"><rect x="348" y="1540" width="3584" height="1012"/></clipPath><clipPath id="clip59"><rect x="348" y="1540" width="3584" height="1012"/></clipPath><clipPath id="clip60"><rect x="348" y="1540" width="3584" height="1012"/></clipPath><clipPath id="clip61"><rect x="348" y="1540" width="3584" height="1012"/></clipPath></defs><g clip-path="url(#clip0)" transform="translate(-343 -1535)"><rect x="348" y="1540" width="3584" height="1013" fill="#FFFFFF" fill-opacity="1"/><g clip-path="url(#clip1)"><path d="M456.5 2346.58 3855.5 2346.58M456.5 2223.57 3855.5 2223.57M456.5 2101.57 3855.5 2101.57M456.5 1978.57 3855.5 1978.57M456.5 1855.56 3855.5 1855.56M456.5 1732.5 3855.5 1732.5" stroke="#D9D9D9" stroke-width="3.4375" stroke-linecap="butt" stroke-linejoin="round" stroke-miterlimit="10" stroke-opacity="1" fill="none" fill-rule="nonzero"/></g><g clip-path="url(#clip2)"><path d="M468.015 2341.08 478.016 2341.08 478.016 2470 468.015 2470ZM502.016 1954.06 512.017 1954.06 512.017 2470 502.016 2470ZM536.018 2058.07 546.018 2058.07 546.018 2470 536.018 2470ZM570.019 1874.06 580.019 1874.06 580.019 2470 570.019 2470ZM604.02 2163.07 614.02 2163.07 614.02 2470 604.02 2470ZM638.021 2248.07 648.021 2248.07 648.021 2470 638.021 2470ZM672.022 1862.06 682.022 1862.06 682.022 2470 672.022 2470ZM706.023 2451.08 716.023 2451.08 716.023 2470 706.023 2470ZM740.024 2113.07 750.025 2113.07 750.025 2470 740.024 2470ZM774.025 2359.08 784.026 2359.08 784.026 2470 774.025 2470ZM808.026 2224.07 818.027 2224.07 818.027 2470 808.026 2470ZM842.028 2193.07 852.028 2193.07 852.028 2470 842.028 2470ZM876.029 2402.08 886.029 2402.08 886.029 2470 876.029 2470ZM910.03 2218.07 920.03 2218.07 920.03 2470 910.03 2470ZM944.031 2199.07 954.031 2199.07 954.031 2470 944.031 2470ZM978.032 1905.06 988.032 1905.06 988.032 2470 978.032 2470ZM1012.03 2083.07 1022.03 2083.07 1022.03 2470 1012.03 2470ZM1046.03 1960.06 1056.03 1960.06 1056.03 2470 1046.03 2470ZM1080.04 1868.06 1090.04 1868.06 1090.04 2470 1080.04 2470ZM1114.04 1935.06 1124.04 1935.06 1124.04 2470 1114.04 2470ZM1148.04 2255.07 1158.04 2255.07 1158.04 2470 1148.04 2470ZM1182.04 1911.06 1192.04 1911.06 1192.04 2470 1182.04 2470ZM1216.04 2242.07 1226.04 2242.07 1226.04 2470 1216.04 2470ZM1250.04 1972.06 1260.04 1972.06 1260.04 2470 1250.04 2470ZM1284.04 2433.08 1294.04 2433.08 1294.04 2470 1284.04 2470ZM1318.04 2390.08 1328.04 2390.08 1328.04 2470 1318.04 2470ZM1352.04 2003.07 1362.04 2003.07 1362.04 2470 1352.04 2470ZM1386.05 2027.07 1396.05 2027.07 1396.05 2470 1386.05 2470ZM1420.05 2414.08 1430.05 2414.08 1430.05 2470 1420.05 2470ZM1454.05 2371.08 1464.05 2371.08 1464.05 2470 1454.05 2470ZM1488.05 2095.07 1498.05 2095.07 1498.05 2470 1488.05 2470ZM1522.05 2328.08 1532.05 2328.08 1532.05 2470 1522.05 2470ZM1556.05 2279.07 1566.05 2279.07 1566.05 2470 1556.05 2470ZM1590.05 2052.07 1600.05 2052.07 1600.05 2470 1590.05 2470ZM1624.05 2064.07 1634.05 2064.07 1634.05 2470 1624.05 2470ZM1658.05 2040.07 1668.05 2040.07 1668.05 2470 1658.05 2470ZM1692.06 2261.07 1702.06 2261.07 1702.06 2470 1692.06 2470ZM1726.06 2089.07 1736.06 2089.07 1736.06 2470 1726.06 2470ZM1760.06 2334.08 1770.06 2334.08 1770.06 2470 1760.06 2470ZM1794.06 2236.07 1804.06 2236.07 1804.06 2470 1794.06 2470ZM1828.06 2015.07 1838.06 2015.07 1838.06 2470 1828.06 2470ZM1862.06 2181.07 1872.06 2181.07 1872.06 2470 1862.06 2470ZM1896.06 2445.08 1906.06 2445.08 1906.06 2470 1896.06 2470ZM1930.06 1942.06 1940.06 1942.06 1940.06 2470 1930.06 2470ZM1964.06 2285.07 1974.06 2285.07 1974.06 2470 1964.06 2470ZM1998.07 2365.08 2008.07 2365.08 2008.07 2470 1998.07 2470ZM2032.07 2126.07 2042.07 2126.07 2042.07 2470 2032.07 2470ZM2066.07 1886.06 2076.07 1886.06 2076.07 2470 2066.07 2470ZM2100.07 1917.06 2110.07 1917.06 2110.07 2470 2100.07 2470ZM2134.07 2101.07 2144.07 2101.07 2144.07 2470 2134.07 2470ZM2168.07 2383.08 2178.07 2383.08 2178.07 2470 2168.07 2470ZM2202.07 2463.08 2212.07 2463.08 2212.07 2470 2202.07 2470ZM2236.07 2175.07 2246.07 2175.07 2246.07 2470 2236.07 2470ZM2270.07 2439.08 2280.07 2439.08 2280.07 2470 2270.07 2470ZM2304.08 1997.07 2314.08 1997.07 2314.08 2470 2304.08 2470ZM2338.08 2298.08 2348.08 2298.08 2348.08 2470 2338.08 2470ZM2372.08 2396.08 2382.08 2396.08 2382.08 2470 2372.08 2470ZM2406.08 2150.07 2416.08 2150.07 2416.08 2470 2406.08 2470ZM2440.08 1923.06 2450.08 1923.06 2450.08 2470 2440.08 2470ZM2474.08 1880.06 2484.08 1880.06 2484.08 2470 2474.08 2470ZM2508.08 1892.06 2518.08 1892.06 2518.08 2470 2508.08 2470ZM2542.08 2187.07 2552.08 2187.07 2552.08 2470 2542.08 2470ZM2576.08 2169.07 2586.08 2169.07 2586.08 2470 2576.08 2470ZM2610.09 2120.07 2620.09 2120.07 2620.09 2470 2610.09 2470ZM2644.09 1948.06 2654.09 1948.06 2654.09 2470 2644.09 2470ZM2678.09 2107.07 2688.09 2107.07 2688.09 2470 2678.09 2470ZM2712.09 2377.08 2722.09 2377.08 2722.09 2470 2712.09 2470ZM2746.09 1929.06 2756.09 1929.06 2756.09 2470 2746.09 2470ZM2780.09 2304.08 2790.09 2304.08 2790.09 2470 2780.09 2470ZM2814.09 1899.06 2824.09 1899.06 2824.09 2470 2814.09 2470ZM2848.09 2138.07 2858.09 2138.07 2858.09 2470 2848.09 2470ZM2882.09 2144.07 2892.09 2144.07 2892.09 2470 2882.09 2470ZM2916.1 2310.08 2926.1 2310.08 2926.1 2470 2916.1 2470ZM2950.1 2273.07 2960.1 2273.07 2960.1 2470 2950.1 2470ZM2984.1 1985.07 2994.1 1985.07 2994.1 2470 2984.1 2470ZM3018.1 1991.07 3028.1 1991.07 3028.1 2470 3018.1 2470ZM3052.1 2205.07 3062.1 2205.07 3062.1 2470 3052.1 2470ZM3086.1 2212.07 3096.1 2212.07 3096.1 2470 3086.1 2470ZM3120.1 2077.07 3130.1 2077.07 3130.1 2470 3120.1 2470ZM3188.1 2046.07 3198.1 2046.07 3198.1 2470 3188.1 2470ZM3222.11 2132.07 3232.11 2132.07 3232.11 2470 3222.11 2470ZM3256.11 2009.07 3266.11 2009.07 3266.11 2470 3256.11 2470ZM3290.11 1966.06 3300.11 1966.06 3300.11 2470 3290.11 2470ZM3324.11 2291.08 3334.11 2291.08 3334.11 2470 3324.11 2470ZM3358.11 2156.07 3368.11 2156.07 3368.11 2470 3358.11 2470ZM3392.11 2034.07 3402.11 2034.07 3402.11 2470 3392.11 2470ZM3426.11 2230.07 3436.11 2230.07 3436.11 2470 3426.11 2470ZM3460.11 2420.08 3470.11 2420.08 3470.11 2470 3460.11 2470ZM3494.11 2267.07 3504.11 2267.07 3504.11 2470 3494.11 2470ZM3528.12 1978.06 3538.12 1978.06 3538.12 2470 3528.12 2470ZM3562.12 2316.08 3572.12 2316.08 3572.12 2470 3562.12 2470ZM3596.12 2353.08 3606.12 2353.08 3606.12 2470 3596.12 2470ZM3630.12 2426.08 3640.12 2426.08 3640.12 2470 3630.12 2470ZM3664.12 2070.07 3674.12 2070.07 3674.12 2470 3664.12 2470ZM3698.12 2347.08 3708.12 2347.08 3708.12 2470 3698.12 2470ZM3732.12 2021.07 3742.12 2021.07 3742.12 2470 3732.12 2470ZM3766.12 2457.08 3776.12 2457.08 3776.12 2470 3766.12 2470ZM3800.12 2408.08 3810.12 2408.08 3810.12 2470 3800.12 2470ZM3834.13 2322.08 3844.13 2322.08 3844.13 2470 3834.13 2470Z" fill="#4472C4" fill-rule="nonzero" fill-opacity="1"/></g><g clip-path="url(#clip3)"><path d="M456.5 2469.5 3855.5 2469.5" stroke="#D9D9D9" stroke-width="3.4375" stroke-linecap="butt" stroke-linejoin="round" stroke-miterlimit="10" stroke-opacity="1" fill="none" fill-rule="evenodd"/></g><g clip-path="url(#clip4)"><text fill="#595959" fill-opacity="1" font-family="Calibri,Calibri_MSFontService,sans-serif" font-style="normal" font-variant="normal" font-weight="400" font-stretch="normal" font-size="41" text-anchor="start" direction="ltr" writing-mode="lr-tb" unicode-bidi="normal" text-decoration="none" transform="matrix(1 0 0 1 397.008 2480)">0</text></g><g clip-path="url(#clip5)"><text fill="#595959" fill-opacity="1" font-family="Calibri,Calibri_MSFontService,sans-serif" font-style="normal" font-variant="normal" font-weight="400" font-stretch="normal" font-size="41" text-anchor="start" direction="ltr" writing-mode="lr-tb" unicode-bidi="normal" text-decoration="none" transform="matrix(1 0 0 1 376.108 2357)">20</text></g><g clip-path="url(#clip6)"><text fill="#595959" fill-opacity="1" font-family="Calibri,Calibri_MSFontService,sans-serif" font-style="normal" font-variant="normal" font-weight="400" font-stretch="normal" font-size="41" text-anchor="start" direction="ltr" writing-mode="lr-tb" unicode-bidi="normal" text-decoration="none" transform="matrix(1 0 0 1 376.108 2234)">40</text></g><g clip-path="url(#clip7)"><text fill="#595959" fill-opacity="1" font-family="Calibri,Calibri_MSFontService,sans-serif" font-style="normal" font-variant="normal" font-weight="400" font-stretch="normal" font-size="41" text-anchor="start" direction="ltr" writing-mode="lr-tb" unicode-bidi="normal" text-decoration="none" transform="matrix(1 0 0 1 376.108 2111)">60</text></g><g clip-path="url(#clip8)"><text fill="#595959" fill-opacity="1" font-family="Calibri,Calibri_MSFontService,sans-serif" font-style="normal" font-variant="normal" font-weight="400" font-stretch="normal" font-size="41" text-anchor="start" direction="ltr" writing-mode="lr-tb" unicode-bidi="normal" text-decoration="none" transform="matrix(1 0 0 1 376.108 1989)">80</text></g><g clip-path="url(#clip9)"><text fill="#595959" fill-opacity="1" font-family="Calibri,Calibri_MSFontService,sans-serif" font-style="normal" font-variant="normal" font-weight="400" font-stretch="normal" font-size="41" text-anchor="start" direction="ltr" writing-mode="lr-tb" unicode-bidi="normal" text-decoration="none" transform="matrix(1 0 0 1 355.208 1866)">100</text></g><g clip-path="url(#clip10)"><text fill="#595959" fill-opacity="1" font-family="Calibri,Calibri_MSFontService,sans-serif" font-style="normal" font-variant="normal" font-weight="400" font-stretch="normal" font-size="41" text-anchor="start" direction="ltr" writing-mode="lr-tb" unicode-bidi="normal" text-decoration="none" transform="matrix(1 0 0 1 355.208 1743)">120</text></g><g clip-path="url(#clip11)"><text fill="#595959" fill-opacity="1" font-family="Calibri,Calibri_MSFontService,sans-serif" font-style="normal" font-variant="normal" font-weight="400" font-stretch="normal" font-size="41" text-anchor="start" direction="ltr" writing-mode="lr-tb" unicode-bidi="normal" text-decoration="none" transform="matrix(1 0 0 1 462.724 2535)">1</text></g><g clip-path="url(#clip12)"><text fill="#595959" fill-opacity="1" font-family="Calibri,Calibri_MSFontService,sans-serif" font-style="normal" font-variant="normal" font-weight="400" font-stretch="normal" font-size="41" text-anchor="start" direction="ltr" writing-mode="lr-tb" unicode-bidi="normal" text-decoration="none" transform="matrix(1 0 0 1 530.72 2535)">3</text></g><g clip-path="url(#clip13)"><text fill="#595959" fill-opacity="1" font-family="Calibri,Calibri_MSFontService,sans-serif" font-style="normal" font-variant="normal" font-weight="400" font-stretch="normal" font-size="41" text-anchor="start" direction="ltr" writing-mode="lr-tb" unicode-bidi="normal" text-decoration="none" transform="matrix(1 0 0 1 598.715 2535)">5</text></g><g clip-path="url(#clip14)"><text fill="#595959" fill-opacity="1" font-family="Calibri,Calibri_MSFontService,sans-serif" font-style="normal" font-variant="normal" font-weight="400" font-stretch="normal" font-size="41" text-anchor="start" direction="ltr" writing-mode="lr-tb" unicode-bidi="normal" text-decoration="none" transform="matrix(1 0 0 1 666.711 2535)">7</text></g><g clip-path="url(#clip15)"><text fill="#595959" fill-opacity="1" font-family="Calibri,Calibri_MSFontService,sans-serif" font-style="normal" font-variant="normal" font-weight="400" font-stretch="normal" font-size="41" text-anchor="start" direction="ltr" writing-mode="lr-tb" unicode-bidi="normal" text-decoration="none" transform="matrix(1 0 0 1 734.707 2535)">9</text></g><g clip-path="url(#clip16)"><text fill="#595959" fill-opacity="1" font-family="Calibri,Calibri_MSFontService,sans-serif" font-style="normal" font-variant="normal" font-weight="400" font-stretch="normal" font-size="41" text-anchor="start" direction="ltr" writing-mode="lr-tb" unicode-bidi="normal" text-decoration="none" transform="matrix(1 0 0 1 792.252 2535)">11</text></g><g clip-path="url(#clip17)"><text fill="#595959" fill-opacity="1" font-family="Calibri,Calibri_MSFontService,sans-serif" font-style="normal" font-variant="normal" font-weight="400" font-stretch="normal" font-size="41" text-anchor="start" direction="ltr" writing-mode="lr-tb" unicode-bidi="normal" text-decoration="none" transform="matrix(1 0 0 1 860.248 2535)">13</text></g><g clip-path="url(#clip18)"><text fill="#595959" fill-opacity="1" font-family="Calibri,Calibri_MSFontService,sans-serif" font-style="normal" font-variant="normal" font-weight="400" font-stretch="normal" font-size="41" text-anchor="start" direction="ltr" writing-mode="lr-tb" unicode-bidi="normal" text-decoration="none" transform="matrix(1 0 0 1 928.244 2535)">15</text></g><g clip-path="url(#clip19)"><text fill="#595959" fill-opacity="1" font-family="Calibri,Calibri_MSFontService,sans-serif" font-style="normal" font-variant="normal" font-weight="400" font-stretch="normal" font-size="41" text-anchor="start" direction="ltr" writing-mode="lr-tb" unicode-bidi="normal" text-decoration="none" transform="matrix(1 0 0 1 996.239 2535)">17</text></g><g clip-path="url(#clip20)"><text fill="#595959" fill-opacity="1" font-family="Calibri,Calibri_MSFontService,sans-serif" font-style="normal" font-variant="normal" font-weight="400" font-stretch="normal" font-size="41" text-anchor="start" direction="ltr" writing-mode="lr-tb" unicode-bidi="normal" text-decoration="none" transform="matrix(1 0 0 1 1064.24 2535)">19</text></g><g clip-path="url(#clip21)"><text fill="#595959" fill-opacity="1" font-family="Calibri,Calibri_MSFontService,sans-serif" font-style="normal" font-variant="normal" font-weight="400" font-stretch="normal" font-size="41" text-anchor="start" direction="ltr" writing-mode="lr-tb" unicode-bidi="normal" text-decoration="none" transform="matrix(1 0 0 1 1132.23 2535)">21</text></g><g clip-path="url(#clip22)"><text fill="#595959" fill-opacity="1" font-family="Calibri,Calibri_MSFontService,sans-serif" font-style="normal" font-variant="normal" font-weight="400" font-stretch="normal" font-size="41" text-anchor="start" direction="ltr" writing-mode="lr-tb" unicode-bidi="normal" text-decoration="none" transform="matrix(1 0 0 1 1200.23 2535)">23</text></g><g clip-path="url(#clip23)"><text fill="#595959" fill-opacity="1" font-family="Calibri,Calibri_MSFontService,sans-serif" font-style="normal" font-variant="normal" font-weight="400" font-stretch="normal" font-size="41" text-anchor="start" direction="ltr" writing-mode="lr-tb" unicode-bidi="normal" text-decoration="none" transform="matrix(1 0 0 1 1268.22 2535)">25</text></g><g clip-path="url(#clip24)"><text fill="#595959" fill-opacity="1" font-family="Calibri,Calibri_MSFontService,sans-serif" font-style="normal" font-variant="normal" font-weight="400" font-stretch="normal" font-size="41" text-anchor="start" direction="ltr" writing-mode="lr-tb" unicode-bidi="normal" text-decoration="none" transform="matrix(1 0 0 1 1336.22 2535)">27</text></g><g clip-path="url(#clip25)"><text fill="#595959" fill-opacity="1" font-family="Calibri,Calibri_MSFontService,sans-serif" font-style="normal" font-variant="normal" font-weight="400" font-stretch="normal" font-size="41" text-anchor="start" direction="ltr" writing-mode="lr-tb" unicode-bidi="normal" text-decoration="none" transform="matrix(1 0 0 1 1404.21 2535)">29</text></g><g clip-path="url(#clip26)"><text fill="#595959" fill-opacity="1" font-family="Calibri,Calibri_MSFontService,sans-serif" font-style="normal" font-variant="normal" font-weight="400" font-stretch="normal" font-size="41" text-anchor="start" direction="ltr" writing-mode="lr-tb" unicode-bidi="normal" text-decoration="none" transform="matrix(1 0 0 1 1472.21 2535)">31</text></g><g clip-path="url(#clip27)"><text fill="#595959" fill-opacity="1" font-family="Calibri,Calibri_MSFontService,sans-serif" font-style="normal" font-variant="normal" font-weight="400" font-stretch="normal" font-size="41" text-anchor="start" direction="ltr" writing-mode="lr-tb" unicode-bidi="normal" text-decoration="none" transform="matrix(1 0 0 1 1540.2 2535)">33</text></g><g clip-path="url(#clip28)"><text fill="#595959" fill-opacity="1" font-family="Calibri,Calibri_MSFontService,sans-serif" font-style="normal" font-variant="normal" font-weight="400" font-stretch="normal" font-size="41" text-anchor="start" direction="ltr" writing-mode="lr-tb" unicode-bidi="normal" text-decoration="none" transform="matrix(1 0 0 1 1608.2 2535)">35</text></g><g clip-path="url(#clip29)"><text fill="#595959" fill-opacity="1" font-family="Calibri,Calibri_MSFontService,sans-serif" font-style="normal" font-variant="normal" font-weight="400" font-stretch="normal" font-size="41" text-anchor="start" direction="ltr" writing-mode="lr-tb" unicode-bidi="normal" text-decoration="none" transform="matrix(1 0 0 1 1676.2 2535)">37</text></g><g clip-path="url(#clip30)"><text fill="#595959" fill-opacity="1" font-family="Calibri,Calibri_MSFontService,sans-serif" font-style="normal" font-variant="normal" font-weight="400" font-stretch="normal" font-size="41" text-anchor="start" direction="ltr" writing-mode="lr-tb" unicode-bidi="normal" text-decoration="none" transform="matrix(1 0 0 1 1744.19 2535)">39</text></g><g clip-path="url(#clip31)"><text fill="#595959" fill-opacity="1" font-family="Calibri,Calibri_MSFontService,sans-serif" font-style="normal" font-variant="normal" font-weight="400" font-stretch="normal" font-size="41" text-anchor="start" direction="ltr" writing-mode="lr-tb" unicode-bidi="normal" text-decoration="none" transform="matrix(1 0 0 1 1812.19 2535)">41</text></g><g clip-path="url(#clip32)"><text fill="#595959" fill-opacity="1" font-family="Calibri,Calibri_MSFontService,sans-serif" font-style="normal" font-variant="normal" font-weight="400" font-stretch="normal" font-size="41" text-anchor="start" direction="ltr" writing-mode="lr-tb" unicode-bidi="normal" text-decoration="none" transform="matrix(1 0 0 1 1880.18 2535)">43</text></g><g clip-path="url(#clip33)"><text fill="#595959" fill-opacity="1" font-family="Calibri,Calibri_MSFontService,sans-serif" font-style="normal" font-variant="normal" font-weight="400" font-stretch="normal" font-size="41" text-anchor="start" direction="ltr" writing-mode="lr-tb" unicode-bidi="normal" text-decoration="none" transform="matrix(1 0 0 1 1948.18 2535)">45</text></g><g clip-path="url(#clip34)"><text fill="#595959" fill-opacity="1" font-family="Calibri,Calibri_MSFontService,sans-serif" font-style="normal" font-variant="normal" font-weight="400" font-stretch="normal" font-size="41" text-anchor="start" direction="ltr" writing-mode="lr-tb" unicode-bidi="normal" text-decoration="none" transform="matrix(1 0 0 1 2016.17 2535)">47</text></g><g clip-path="url(#clip35)"><text fill="#595959" fill-opacity="1" font-family="Calibri,Calibri_MSFontService,sans-serif" font-style="normal" font-variant="normal" font-weight="400" font-stretch="normal" font-size="41" text-anchor="start" direction="ltr" writing-mode="lr-tb" unicode-bidi="normal" text-decoration="none" transform="matrix(1 0 0 1 2084.17 2535)">49</text></g><g clip-path="url(#clip36)"><text fill="#595959" fill-opacity="1" font-family="Calibri,Calibri_MSFontService,sans-serif" font-style="normal" font-variant="normal" font-weight="400" font-stretch="normal" font-size="41" text-anchor="start" direction="ltr" writing-mode="lr-tb" unicode-bidi="normal" text-decoration="none" transform="matrix(1 0 0 1 2152.17 2535)">51</text></g><g clip-path="url(#clip37)"><text fill="#595959" fill-opacity="1" font-family="Calibri,Calibri_MSFontService,sans-serif" font-style="normal" font-variant="normal" font-weight="400" font-stretch="normal" font-size="41" text-anchor="start" direction="ltr" writing-mode="lr-tb" unicode-bidi="normal" text-decoration="none" transform="matrix(1 0 0 1 2220.16 2535)">53</text></g><g clip-path="url(#clip38)"><text fill="#595959" fill-opacity="1" font-family="Calibri,Calibri_MSFontService,sans-serif" font-style="normal" font-variant="normal" font-weight="400" font-stretch="normal" font-size="41" text-anchor="start" direction="ltr" writing-mode="lr-tb" unicode-bidi="normal" text-decoration="none" transform="matrix(1 0 0 1 2288.16 2535)">55</text></g><g clip-path="url(#clip39)"><text fill="#595959" fill-opacity="1" font-family="Calibri,Calibri_MSFontService,sans-serif" font-style="normal" font-variant="normal" font-weight="400" font-stretch="normal" font-size="41" text-anchor="start" direction="ltr" writing-mode="lr-tb" unicode-bidi="normal" text-decoration="none" transform="matrix(1 0 0 1 2356.15 2535)">57</text></g><g clip-path="url(#clip40)"><text fill="#595959" fill-opacity="1" font-family="Calibri,Calibri_MSFontService,sans-serif" font-style="normal" font-variant="normal" font-weight="400" font-stretch="normal" font-size="41" text-anchor="start" direction="ltr" writing-mode="lr-tb" unicode-bidi="normal" text-decoration="none" transform="matrix(1 0 0 1 2424.15 2535)">59</text></g><g clip-path="url(#clip41)"><text fill="#595959" fill-opacity="1" font-family="Calibri,Calibri_MSFontService,sans-serif" font-style="normal" font-variant="normal" font-weight="400" font-stretch="normal" font-size="41" text-anchor="start" direction="ltr" writing-mode="lr-tb" unicode-bidi="normal" text-decoration="none" transform="matrix(1 0 0 1 2492.14 2535)">61</text></g><g clip-path="url(#clip42)"><text fill="#595959" fill-opacity="1" font-family="Calibri,Calibri_MSFontService,sans-serif" font-style="normal" font-variant="normal" font-weight="400" font-stretch="normal" font-size="41" text-anchor="start" direction="ltr" writing-mode="lr-tb" unicode-bidi="normal" text-decoration="none" transform="matrix(1 0 0 1 2560.14 2535)">63</text></g><g clip-path="url(#clip43)"><text fill="#595959" fill-opacity="1" font-family="Calibri,Calibri_MSFontService,sans-serif" font-style="normal" font-variant="normal" font-weight="400" font-stretch="normal" font-size="41" text-anchor="start" direction="ltr" writing-mode="lr-tb" unicode-bidi="normal" text-decoration="none" transform="matrix(1 0 0 1 2628.14 2535)">65</text></g><g clip-path="url(#clip44)"><text fill="#595959" fill-opacity="1" font-family="Calibri,Calibri_MSFontService,sans-serif" font-style="normal" font-variant="normal" font-weight="400" font-stretch="normal" font-size="41" text-anchor="start" direction="ltr" writing-mode="lr-tb" unicode-bidi="normal" text-decoration="none" transform="matrix(1 0 0 1 2696.13 2535)">67</text></g><g clip-path="url(#clip45)"><text fill="#595959" fill-opacity="1" font-family="Calibri,Calibri_MSFontService,sans-serif" font-style="normal" font-variant="normal" font-weight="400" font-stretch="normal" font-size="41" text-anchor="start" direction="ltr" writing-mode="lr-tb" unicode-bidi="normal" text-decoration="none" transform="matrix(1 0 0 1 2764.13 2535)">69</text></g><g clip-path="url(#clip46)"><text fill="#595959" fill-opacity="1" font-family="Calibri,Calibri_MSFontService,sans-serif" font-style="normal" font-variant="normal" font-weight="400" font-stretch="normal" font-size="41" text-anchor="start" direction="ltr" writing-mode="lr-tb" unicode-bidi="normal" text-decoration="none" transform="matrix(1 0 0 1 2832.12 2535)">71</text></g><g clip-path="url(#clip47)"><text fill="#595959" fill-opacity="1" font-family="Calibri,Calibri_MSFontService,sans-serif" font-style="normal" font-variant="normal" font-weight="400" font-stretch="normal" font-size="41" text-anchor="start" direction="ltr" writing-mode="lr-tb" unicode-bidi="normal" text-decoration="none" transform="matrix(1 0 0 1 2900.12 2535)">73</text></g><g clip-path="url(#clip48)"><text fill="#595959" fill-opacity="1" font-family="Calibri,Calibri_MSFontService,sans-serif" font-style="normal" font-variant="normal" font-weight="400" font-stretch="normal" font-size="41" text-anchor="start" direction="ltr" writing-mode="lr-tb" unicode-bidi="normal" text-decoration="none" transform="matrix(1 0 0 1 2968.11 2535)">75</text></g><g clip-path="url(#clip49)"><text fill="#595959" fill-opacity="1" font-family="Calibri,Calibri_MSFontService,sans-serif" font-style="normal" font-variant="normal" font-weight="400" font-stretch="normal" font-size="41" text-anchor="start" direction="ltr" writing-mode="lr-tb" unicode-bidi="normal" text-decoration="none" transform="matrix(1 0 0 1 3036.11 2535)">77</text></g><g clip-path="url(#clip50)"><text fill="#595959" fill-opacity="1" font-family="Calibri,Calibri_MSFontService,sans-serif" font-style="normal" font-variant="normal" font-weight="400" font-stretch="normal" font-size="41" text-anchor="start" direction="ltr" writing-mode="lr-tb" unicode-bidi="normal" text-decoration="none" transform="matrix(1 0 0 1 3104.1 2535)">79</text></g><g clip-path="url(#clip51)"><text fill="#595959" fill-opacity="1" font-family="Calibri,Calibri_MSFontService,sans-serif" font-style="normal" font-variant="normal" font-weight="400" font-stretch="normal" font-size="41" text-anchor="start" direction="ltr" writing-mode="lr-tb" unicode-bidi="normal" text-decoration="none" transform="matrix(1 0 0 1 3172.1 2535)">81</text></g><g clip-path="url(#clip52)"><text fill="#595959" fill-opacity="1" font-family="Calibri,Calibri_MSFontService,sans-serif" font-style="normal" font-variant="normal" font-weight="400" font-stretch="normal" font-size="41" text-anchor="start" direction="ltr" writing-mode="lr-tb" unicode-bidi="normal" text-decoration="none" transform="matrix(1 0 0 1 3240.1 2535)">83</text></g><g clip-path="url(#clip53)"><text fill="#595959" fill-opacity="1" font-family="Calibri,Calibri_MSFontService,sans-serif" font-style="normal" font-variant="normal" font-weight="400" font-stretch="normal" font-size="41" text-anchor="start" direction="ltr" writing-mode="lr-tb" unicode-bidi="normal" text-decoration="none" transform="matrix(1 0 0 1 3308.09 2535)">85</text></g><g clip-path="url(#clip54)"><text fill="#595959" fill-opacity="1" font-family="Calibri,Calibri_MSFontService,sans-serif" font-style="normal" font-variant="normal" font-weight="400" font-stretch="normal" font-size="41" text-anchor="start" direction="ltr" writing-mode="lr-tb" unicode-bidi="normal" text-decoration="none" transform="matrix(1 0 0 1 3376.09 2535)">87</text></g><g clip-path="url(#clip55)"><text fill="#595959" fill-opacity="1" font-family="Calibri,Calibri_MSFontService,sans-serif" font-style="normal" font-variant="normal" font-weight="400" font-stretch="normal" font-size="41" text-anchor="start" direction="ltr" writing-mode="lr-tb" unicode-bidi="normal" text-decoration="none" transform="matrix(1 0 0 1 3444.08 2535)">89</text></g><g clip-path="url(#clip56)"><text fill="#595959" fill-opacity="1" font-family="Calibri,Calibri_MSFontService,sans-serif" font-style="normal" font-variant="normal" font-weight="400" font-stretch="normal" font-size="41" text-anchor="start" direction="ltr" writing-mode="lr-tb" unicode-bidi="normal" text-decoration="none" transform="matrix(1 0 0 1 3512.08 2535)">91</text></g><g clip-path="url(#clip57)"><text fill="#595959" fill-opacity="1" font-family="Calibri,Calibri_MSFontService,sans-serif" font-style="normal" font-variant="normal" font-weight="400" font-stretch="normal" font-size="41" text-anchor="start" direction="ltr" writing-mode="lr-tb" unicode-bidi="normal" text-decoration="none" transform="matrix(1 0 0 1 3580.07 2535)">93</text></g><g clip-path="url(#clip58)"><text fill="#595959" fill-opacity="1" font-family="Calibri,Calibri_MSFontService,sans-serif" font-style="normal" font-variant="normal" font-weight="400" font-stretch="normal" font-size="41" text-anchor="start" direction="ltr" writing-mode="lr-tb" unicode-bidi="normal" text-decoration="none" transform="matrix(1 0 0 1 3648.07 2535)">95</text></g><g clip-path="url(#clip59)"><text fill="#595959" fill-opacity="1" font-family="Calibri,Calibri_MSFontService,sans-serif" font-style="normal" font-variant="normal" font-weight="400" font-stretch="normal" font-size="41" text-anchor="start" direction="ltr" writing-mode="lr-tb" unicode-bidi="normal" text-decoration="none" transform="matrix(1 0 0 1 3716.07 2535)">97</text></g><g clip-path="url(#clip60)"><text fill="#595959" fill-opacity="1" font-family="Calibri,Calibri_MSFontService,sans-serif" font-style="normal" font-variant="normal" font-weight="400" font-stretch="normal" font-size="41" text-anchor="start" direction="ltr" writing-mode="lr-tb" unicode-bidi="normal" text-decoration="none" transform="matrix(1 0 0 1 3784.06 2535)">99</text></g><g clip-path="url(#clip61)"><text fill="#595959" fill-opacity="1" font-family="Calibri,Calibri_MSFontService,sans-serif" font-style="normal" font-variant="normal" font-weight="400" font-stretch="normal" font-size="64" text-anchor="start" direction="ltr" writing-mode="lr-tb" unicode-bidi="normal" text-decoration="none" transform="matrix(1 0 0 1 1932.3 1635)">Entrée aléatoire</text></g><rect x="348.5" y="1540.5" width="3584" height="1013" stroke="#D9D9D9" stroke-width="3.4375" stroke-linecap="butt" stroke-linejoin="round" stroke-miterlimit="10" stroke-opacity="1" fill="none"/></g></svg>